<?xml version="1.0" encoding="UTF-8" standalone="no"?><!DOCTYPE svg PUBLIC "-//W3C//DTD SVG 1.1//EN" "http://www.w3.org/Graphics/SVG/1.1/DTD/svg11.dtd"><svg width="100%" height="100%" viewBox="0 0 221 221" version="1.1" xmlns="http://www.w3.org/2000/svg" xmlns:xlink="http://www.w3.org/1999/xlink" xml:space="preserve" xmlns:serif="http://www.serif.com/" style="fill-rule:evenodd;clip-rule:evenodd;stroke-linecap:round;stroke-linejoin:round;stroke-miterlimit:1.5;"><g id="ロゴ"><g id="レイヤー2"><path d="M110.007,2.3c59.445,-0 107.706,48.262 107.706,107.707c0,59.445 -48.261,107.706 -107.706,107.706c-59.445,0 -107.707,-48.261 -107.707,-107.706c0,-59.445 48.262,-107.707 107.707,-107.707Zm-0,29.005c-43.437,-0 -78.702,35.265 -78.702,78.702c-0,43.436 35.265,78.702 78.702,78.702c43.436,-0 78.702,-35.266 78.702,-78.702c-0,-43.437 -35.266,-78.702 -78.702,-78.702Z" style="fill:#569600;stroke:#172900;stroke-width:4.6px;"/><g><path d="M38.134,185.333c-0.585,-0.545 -1.006,-1.101 -1.262,-1.668c-0.256,-0.566 -0.361,-1.128 -0.315,-1.687l1.089,-0.024c-0.041,0.454 0.03,0.902 0.21,1.344c0.181,0.441 0.516,0.89 1.003,1.344c0.732,0.681 1.498,1.048 2.297,1.1c0.799,0.052 1.675,-0.298 2.63,-1.049l2.025,-1.558l-0.044,-0.041c-0.828,0.322 -1.618,0.461 -2.37,0.417c-0.752,-0.044 -1.459,-0.375 -2.123,-0.993c-0.8,-0.745 -1.166,-1.569 -1.099,-2.473c0.067,-0.903 0.514,-1.798 1.34,-2.686c0.546,-0.586 1.162,-1.101 1.849,-1.545c0.687,-0.444 1.393,-0.762 2.117,-0.953c0.724,-0.19 1.442,-0.223 2.154,-0.097c0.713,0.125 1.371,0.47 1.976,1.033c0.605,0.563 0.975,1.159 1.111,1.786c0.135,0.627 0.063,1.248 -0.217,1.862l0.044,0.04l1.46,-1.127l0.819,0.763l-8.402,6.469c-1.167,0.881 -2.275,1.274 -3.326,1.18c-1.05,-0.095 -2.039,-0.574 -2.966,-1.437Zm4.056,-3.329c0.322,0.3 0.682,0.53 1.079,0.691c0.397,0.16 0.85,0.222 1.358,0.185c0.377,-0.013 0.818,-0.09 1.322,-0.231c0.504,-0.14 1,-0.394 1.487,-0.76l1.915,-1.469c0.275,-0.218 0.488,-0.471 0.638,-0.759c0.15,-0.288 0.219,-0.597 0.208,-0.927c-0.012,-0.33 -0.104,-0.666 -0.277,-1.009c-0.172,-0.343 -0.434,-0.678 -0.786,-1.005c-0.761,-0.709 -1.602,-1.028 -2.524,-0.958c-0.922,0.071 -1.82,0.438 -2.692,1.101l-0.854,0.653c-0.147,0.118 -0.278,0.224 -0.392,0.318c-0.115,0.094 -0.222,0.194 -0.322,0.302c-0.6,0.644 -0.935,1.302 -1.006,1.974c-0.07,0.672 0.212,1.304 0.846,1.894Z" style="fill:#fff;fill-rule:nonzero;stroke:#fff;stroke-width:1px;stroke-miterlimit:5;"/><path d="M51.071,190.973c-1.036,-0.751 -1.611,-1.627 -1.727,-2.625c-0.116,-0.998 0.261,-2.096 1.13,-3.294c0.533,-0.734 1.134,-1.335 1.804,-1.804c0.67,-0.47 1.371,-0.793 2.101,-0.972c0.731,-0.178 1.463,-0.198 2.196,-0.062c0.733,0.137 1.428,0.444 2.086,0.922c0.821,0.595 1.346,1.261 1.578,1.997c0.231,0.737 0.097,1.45 -0.405,2.141c-0.203,0.28 -0.486,0.528 -0.848,0.743c-0.362,0.215 -0.857,0.301 -1.484,0.257c-0.628,-0.043 -1.425,-0.267 -2.391,-0.672c-0.966,-0.405 -2.147,-1.089 -3.541,-2.051c-0.073,0.078 -0.137,0.155 -0.192,0.231c-0.055,0.075 -0.09,0.124 -0.106,0.146c-0.258,0.356 -0.466,0.716 -0.623,1.08c-0.157,0.363 -0.234,0.731 -0.233,1.103c0.002,0.372 0.103,0.738 0.304,1.098c0.2,0.359 0.532,0.707 0.996,1.044c0.648,0.47 1.319,0.702 2.015,0.697c0.696,-0.006 1.505,-0.201 2.427,-0.586l0.37,0.886c-1.051,0.472 -2.013,0.697 -2.886,0.673c-0.872,-0.023 -1.729,-0.341 -2.571,-0.952Zm6.941,-7.145c-0.852,-0.619 -1.777,-0.866 -2.774,-0.741c-0.997,0.125 -1.95,0.656 -2.861,1.593l-0.26,0.256c1.146,0.782 2.108,1.357 2.887,1.725c0.779,0.368 1.43,0.589 1.953,0.664c0.522,0.074 0.932,0.038 1.228,-0.11c0.297,-0.147 0.531,-0.339 0.703,-0.577c0.29,-0.399 0.389,-0.842 0.298,-1.328c-0.092,-0.487 -0.483,-0.981 -1.174,-1.482Z" style="fill:#fff;fill-rule:nonzero;stroke:#fff;stroke-width:1px;stroke-miterlimit:5;"/><path d="M61.168,197.484c-1.118,-0.623 -1.795,-1.423 -2.029,-2.4c-0.234,-0.977 0.008,-2.113 0.728,-3.406c0.441,-0.792 0.966,-1.461 1.575,-2.007c0.609,-0.546 1.266,-0.951 1.97,-1.216c0.704,-0.264 1.428,-0.372 2.172,-0.324c0.744,0.047 1.471,0.269 2.182,0.665c0.885,0.492 1.487,1.09 1.805,1.794c0.318,0.703 0.27,1.428 -0.145,2.174c-0.169,0.302 -0.42,0.582 -0.754,0.839c-0.333,0.257 -0.814,0.401 -1.442,0.433c-0.628,0.032 -1.446,-0.095 -2.454,-0.381c-1.008,-0.287 -2.262,-0.824 -3.761,-1.613c-0.064,0.087 -0.118,0.171 -0.163,0.253c-0.046,0.081 -0.075,0.134 -0.088,0.157c-0.214,0.385 -0.377,0.767 -0.489,1.147c-0.113,0.38 -0.146,0.754 -0.099,1.123c0.046,0.37 0.19,0.721 0.432,1.054c0.242,0.333 0.613,0.639 1.114,0.917c0.7,0.389 1.394,0.54 2.085,0.451c0.69,-0.089 1.47,-0.38 2.339,-0.873l0.473,0.836c-0.987,0.595 -1.915,0.933 -2.784,1.014c-0.869,0.081 -1.758,-0.132 -2.667,-0.637Zm6.036,-7.925c-0.92,-0.513 -1.868,-0.647 -2.843,-0.404c-0.974,0.244 -1.858,0.885 -2.65,1.924l-0.227,0.286c1.231,0.639 2.255,1.095 3.073,1.367c0.817,0.272 1.49,0.413 2.018,0.425c0.527,0.011 0.93,-0.074 1.206,-0.256c0.277,-0.182 0.487,-0.401 0.629,-0.657c0.24,-0.431 0.285,-0.883 0.136,-1.355c-0.149,-0.472 -0.596,-0.915 -1.342,-1.33Z" style="fill:#fff;fill-rule:nonzero;stroke:#fff;stroke-width:1px;stroke-miterlimit:5;"/><path d="M76.028,188.157l1.039,0.418l-3.621,5.938l0.075,0.03c0.697,-0.625 1.412,-1.034 2.144,-1.228c0.732,-0.194 1.487,-0.134 2.267,0.18c0.816,0.329 1.356,0.79 1.619,1.385c0.264,0.595 0.258,1.233 -0.016,1.913c-0.119,0.297 -0.299,0.583 -0.54,0.86c-0.241,0.277 -0.576,0.512 -1.006,0.705c-0.43,0.194 -0.974,0.32 -1.63,0.379c-0.656,0.059 -1.451,0.016 -2.384,-0.13l0.358,3.982l0.178,0.093l3.807,-1.421l0.336,0.826l-2.528,1.03c-0.568,0.231 -1.01,0.384 -1.327,0.457c-0.317,0.074 -0.606,0.058 -0.865,-0.046c-0.235,-0.095 -0.406,-0.243 -0.512,-0.444c-0.106,-0.2 -0.168,-0.491 -0.187,-0.873l-0.376,-4.313c0.908,0.136 1.685,0.198 2.33,0.184c0.645,-0.013 1.188,-0.085 1.629,-0.217c0.441,-0.131 0.787,-0.312 1.038,-0.541c0.25,-0.23 0.438,-0.499 0.562,-0.809c0.19,-0.47 0.195,-0.902 0.016,-1.298c-0.178,-0.395 -0.577,-0.717 -1.195,-0.966c-0.47,-0.19 -0.924,-0.268 -1.361,-0.236c-0.437,0.033 -0.86,0.146 -1.269,0.341c-0.976,0.426 -1.721,1.06 -2.233,1.903l-3.12,5.126l-1.039,-0.419l7.811,-12.809Z" style="fill:#fff;fill-rule:nonzero;stroke:#fff;stroke-width:1px;stroke-miterlimit:5;"/><path d="M82.731,200.537l0.495,-1.068l5.349,1.445l-0.496,1.068l-5.348,-1.445Z" style="fill:#fff;fill-rule:nonzero;stroke:#fff;stroke-width:1px;stroke-miterlimit:5;"/><path d="M93.516,208.711l2.814,-9.065l-3.131,-0.422l0.286,-0.93l4.222,0.568l-0.711,2.286l0.099,0.013c0.22,-0.334 0.458,-0.628 0.714,-0.883c0.256,-0.254 0.54,-0.465 0.852,-0.632c0.312,-0.166 0.657,-0.281 1.035,-0.345c0.379,-0.063 0.806,-0.063 1.282,0.001l1.863,0.251l-0.325,1.066l-1.982,-0.267c-1.005,-0.135 -1.843,0.048 -2.516,0.55c-0.25,0.155 -0.532,0.403 -0.847,0.744c-0.315,0.341 -0.556,0.782 -0.723,1.325l-1.822,5.89l-1.11,-0.15Z" style="fill:#fff;fill-rule:nonzero;stroke:#fff;stroke-width:1px;stroke-miterlimit:5;"/><path d="M109.476,210.051l0.459,-2.369l-0.06,-0.002c-0.419,0.777 -0.918,1.398 -1.497,1.863c-0.578,0.466 -1.32,0.688 -2.227,0.665c-1.08,-0.027 -1.894,-0.397 -2.443,-1.111c-0.549,-0.714 -0.808,-1.698 -0.776,-2.951c0.02,-0.813 0.137,-1.62 0.35,-2.422c0.214,-0.801 0.528,-1.524 0.945,-2.167c0.416,-0.643 0.932,-1.16 1.549,-1.552c0.616,-0.391 1.345,-0.576 2.184,-0.555c0.827,0.02 1.499,0.217 2.016,0.59c0.518,0.373 0.875,0.882 1.072,1.528l0.06,0.001l0.345,-1.792l1.12,0.028l-1.977,10.274l-1.12,-0.028Zm-2.98,-0.835c0.427,0.011 0.842,-0.059 1.246,-0.209c0.404,-0.15 0.783,-0.394 1.138,-0.731c0.315,-0.313 0.608,-0.689 0.879,-1.129c0.271,-0.44 0.46,-0.939 0.567,-1.496l0.505,-2.568c0.062,-0.346 0.053,-0.676 -0.026,-0.991c-0.078,-0.316 -0.228,-0.593 -0.449,-0.832c-0.221,-0.239 -0.513,-0.429 -0.876,-0.572c-0.363,-0.142 -0.785,-0.22 -1.265,-0.231c-0.519,-0.013 -0.992,0.068 -1.416,0.244c-0.425,0.176 -0.798,0.424 -1.119,0.742c-0.321,0.319 -0.588,0.703 -0.799,1.151c-0.211,0.448 -0.37,0.938 -0.477,1.468l-0.251,1.255c-0.032,0.185 -0.056,0.355 -0.073,0.508c-0.017,0.153 -0.028,0.303 -0.031,0.449c-0.021,0.84 0.165,1.535 0.558,2.085c0.393,0.55 1.023,0.836 1.889,0.857Z" style="fill:#fff;fill-rule:nonzero;stroke:#fff;stroke-width:1px;stroke-miterlimit:5;"/><path d="M115.936,195.069l1.115,-0.105l-0.489,6.937l0.059,-0.006c0.163,-0.404 0.346,-0.776 0.548,-1.117c0.202,-0.34 0.438,-0.64 0.708,-0.9c0.27,-0.26 0.582,-0.47 0.935,-0.631c0.353,-0.161 0.755,-0.262 1.207,-0.305c1.075,-0.102 1.927,0.169 2.557,0.813c0.63,0.643 1.004,1.589 1.122,2.837c0.077,0.81 0.057,1.628 -0.059,2.456c-0.116,0.828 -0.342,1.583 -0.68,2.264c-0.337,0.682 -0.788,1.254 -1.354,1.716c-0.566,0.462 -1.267,0.732 -2.103,0.811c-0.823,0.078 -1.514,-0.038 -2.072,-0.346c-0.558,-0.309 -0.973,-0.772 -1.246,-1.389l-0.06,0.005l-0.129,1.821l-1.115,0.105l1.056,-14.966Zm3.193,13.801c0.518,-0.049 0.977,-0.186 1.377,-0.412c0.401,-0.225 0.739,-0.515 1.013,-0.869c0.275,-0.354 0.494,-0.766 0.657,-1.237c0.163,-0.471 0.266,-0.976 0.308,-1.516l0.101,-1.275c0.009,-0.188 0.013,-0.359 0.011,-0.513c-0.001,-0.154 -0.008,-0.304 -0.022,-0.45c-0.079,-0.836 -0.346,-1.504 -0.802,-2.004c-0.456,-0.499 -1.115,-0.708 -1.978,-0.626c-0.425,0.04 -0.829,0.158 -1.212,0.355c-0.383,0.197 -0.731,0.485 -1.043,0.862c-0.275,0.348 -0.521,0.756 -0.738,1.225c-0.217,0.47 -0.346,0.987 -0.386,1.554l-0.195,2.609c-0.034,0.352 0.011,0.679 0.133,0.982c0.122,0.303 0.307,0.561 0.555,0.772c0.248,0.21 0.56,0.365 0.938,0.463c0.377,0.099 0.805,0.125 1.283,0.08Z" style="fill:#fff;fill-rule:nonzero;stroke:#fff;stroke-width:1px;stroke-miterlimit:5;"/><path d="M126.077,193.768l1.094,-0.239l0.35,6.945l0.059,-0.013c0.113,-0.42 0.249,-0.811 0.409,-1.174c0.159,-0.362 0.358,-0.689 0.594,-0.979c0.237,-0.291 0.521,-0.537 0.852,-0.739c0.331,-0.202 0.719,-0.352 1.161,-0.448c1.056,-0.231 1.935,-0.065 2.638,0.498c0.703,0.563 1.188,1.457 1.455,2.682c0.174,0.794 0.253,1.609 0.238,2.445c-0.016,0.836 -0.15,1.613 -0.403,2.33c-0.252,0.717 -0.632,1.339 -1.138,1.866c-0.505,0.526 -1.169,0.879 -1.989,1.059c-0.808,0.176 -1.508,0.145 -2.099,-0.095c-0.591,-0.239 -1.059,-0.649 -1.404,-1.228l-0.059,0.012l0.091,1.823l-1.094,0.239l-0.755,-14.984Zm4.833,13.315c0.508,-0.111 0.947,-0.302 1.317,-0.574c0.371,-0.272 0.671,-0.6 0.901,-0.985c0.23,-0.385 0.397,-0.82 0.503,-1.307c0.105,-0.487 0.146,-1.001 0.123,-1.542l-0.054,-1.278c-0.013,-0.188 -0.03,-0.359 -0.05,-0.511c-0.019,-0.153 -0.045,-0.301 -0.076,-0.444c-0.18,-0.821 -0.525,-1.452 -1.038,-1.892c-0.512,-0.441 -1.192,-0.569 -2.039,-0.384c-0.417,0.091 -0.803,0.257 -1.16,0.499c-0.357,0.242 -0.667,0.569 -0.932,0.982c-0.231,0.378 -0.426,0.813 -0.585,1.304c-0.159,0.492 -0.224,1.022 -0.196,1.589l0.121,2.614c0.009,0.353 0.092,0.673 0.25,0.959c0.158,0.286 0.373,0.519 0.644,0.699c0.272,0.179 0.601,0.295 0.987,0.347c0.387,0.052 0.815,0.027 1.284,-0.076Z" style="fill:#fff;fill-rule:nonzero;stroke:#fff;stroke-width:1px;stroke-miterlimit:5;"/><path d="M138.163,206.146l-0.169,-1.042l3.914,-1.35l-2.015,-12.04l-0.114,0.039l-3.044,4.667l-0.803,-0.548l3.107,-4.795l1.815,-0.626l2.17,12.919l3.687,-1.272l0.169,1.042l-8.717,3.006Z" style="fill:#fff;fill-rule:nonzero;stroke:#fff;stroke-width:1px;stroke-miterlimit:5;"/><path d="M152.875,200.696c-0.621,0.307 -1.086,0.15 -1.393,-0.471c-0.083,-0.167 -0.177,-0.403 -0.283,-0.708l-2.257,-7.586l-3.03,1.499l-0.282,-0.932l2.349,-1.161c0.251,-0.124 0.415,-0.273 0.493,-0.445c0.079,-0.173 0.077,-0.402 -0.006,-0.689l-0.828,-2.758l0.95,-0.47l1.076,3.528l4.177,-2.065l0.282,0.931l-4.177,2.066l2.469,8.194l0.322,0.02l3.033,-5.011l0.815,0.386l-2.046,3.488c-0.378,0.678 -0.685,1.179 -0.918,1.503c-0.234,0.324 -0.483,0.551 -0.746,0.681Z" style="fill:#fff;fill-rule:nonzero;stroke:#fff;stroke-width:1px;stroke-miterlimit:5;"/></g><g><path d="M187.292,141.451l0.397,-1.047l6.01,3.499l0.028,-0.074c-0.639,-0.685 -1.062,-1.391 -1.271,-2.119c-0.208,-0.728 -0.164,-1.485 0.134,-2.27c0.312,-0.823 0.763,-1.372 1.353,-1.648c0.589,-0.275 1.227,-0.283 1.912,-0.023c0.299,0.114 0.59,0.288 0.871,0.524c0.282,0.235 0.524,0.565 0.726,0.991c0.202,0.426 0.339,0.967 0.411,1.622c0.072,0.655 0.045,1.45 -0.082,2.386l3.974,-0.439l0.09,-0.179l-1.497,-3.777l0.818,-0.353l1.081,2.507c0.243,0.562 0.404,1.001 0.484,1.317c0.08,0.316 0.07,0.604 -0.029,0.866c-0.09,0.237 -0.234,0.41 -0.433,0.52c-0.198,0.11 -0.488,0.179 -0.869,0.205l-4.304,0.463c0.117,-0.911 0.163,-1.688 0.136,-2.333c-0.026,-0.645 -0.109,-1.186 -0.25,-1.624c-0.14,-0.439 -0.327,-0.781 -0.562,-1.027c-0.235,-0.246 -0.508,-0.428 -0.82,-0.546c-0.473,-0.18 -0.906,-0.176 -1.298,0.01c-0.391,0.187 -0.705,0.592 -0.942,1.215c-0.18,0.474 -0.249,0.929 -0.208,1.365c0.042,0.436 0.164,0.857 0.366,1.262c0.446,0.968 1.096,1.699 1.949,2.194l5.187,3.016l-0.397,1.048l-12.965,-7.551Z" style="fill:#fff;fill-rule:nonzero;stroke:#fff;stroke-width:1px;stroke-miterlimit:5;"/><path d="M205.631,133.728c-0.309,1.242 -0.905,2.104 -1.787,2.585c-0.882,0.482 -2.042,0.544 -3.478,0.186c-0.88,-0.219 -1.663,-0.551 -2.349,-0.996c-0.686,-0.446 -1.248,-0.974 -1.687,-1.584c-0.439,-0.611 -0.733,-1.282 -0.881,-2.012c-0.148,-0.731 -0.123,-1.491 0.073,-2.28c0.245,-0.984 0.665,-1.721 1.261,-2.211c0.596,-0.491 1.308,-0.633 2.136,-0.427c0.337,0.083 0.672,0.253 1.007,0.508c0.335,0.255 0.6,0.682 0.795,1.28c0.195,0.598 0.285,1.42 0.272,2.468c-0.013,1.048 -0.205,2.398 -0.575,4.051c0.1,0.039 0.196,0.07 0.286,0.092c0.091,0.023 0.149,0.037 0.175,0.044c0.427,0.106 0.839,0.163 1.235,0.173c0.396,0.009 0.766,-0.057 1.11,-0.198c0.345,-0.141 0.646,-0.372 0.904,-0.692c0.259,-0.321 0.457,-0.759 0.595,-1.316c0.193,-0.776 0.157,-1.486 -0.109,-2.129c-0.266,-0.643 -0.75,-1.32 -1.453,-2.031l0.683,-0.675c0.833,0.798 1.401,1.606 1.706,2.424c0.305,0.817 0.332,1.731 0.081,2.74Zm-9.226,-3.758c-0.254,1.022 -0.137,1.972 0.353,2.849c0.489,0.878 1.339,1.563 2.549,2.057l0.335,0.145c0.296,-1.356 0.468,-2.463 0.517,-3.324c0.049,-0.86 0.011,-1.546 -0.116,-2.059c-0.127,-0.512 -0.314,-0.878 -0.562,-1.098c-0.247,-0.219 -0.514,-0.364 -0.798,-0.435c-0.479,-0.119 -0.927,-0.045 -1.344,0.222c-0.416,0.267 -0.728,0.815 -0.934,1.643Z" style="fill:#fff;fill-rule:nonzero;stroke:#fff;stroke-width:1px;stroke-miterlimit:5;"/><path d="M211.654,123.872c-0.1,0.794 -0.304,1.457 -0.613,1.989c-0.309,0.532 -0.704,0.949 -1.186,1.251l-0.654,-0.888c0.391,-0.22 0.713,-0.535 0.966,-0.947c0.253,-0.411 0.422,-0.948 0.505,-1.609c0.125,-0.993 -0.028,-1.828 -0.46,-2.508c-0.432,-0.679 -1.225,-1.185 -2.379,-1.519l-2.408,-0.727l-0.007,0.06c0.745,0.483 1.318,1.033 1.717,1.647c0.4,0.615 0.546,1.346 0.44,2.193c-0.11,0.873 -0.45,1.519 -1.021,1.937c-0.57,0.419 -1.311,0.571 -2.224,0.456c-0.185,-0.024 -0.372,-0.057 -0.562,-0.101c-0.189,-0.044 -0.401,-0.095 -0.636,-0.151l-6.061,-1.812l0.14,-1.111l5.964,1.779c0.207,0.067 0.402,0.118 0.586,0.155c0.183,0.036 0.368,0.066 0.553,0.09c0.648,0.081 1.175,-0.02 1.58,-0.305c0.406,-0.285 0.649,-0.752 0.731,-1.4c0.118,-0.939 -0.173,-1.775 -0.873,-2.509c-0.083,-0.091 -0.193,-0.202 -0.331,-0.334c-0.138,-0.131 -0.305,-0.27 -0.502,-0.416c-0.197,-0.145 -0.414,-0.284 -0.653,-0.415c-0.239,-0.13 -0.501,-0.241 -0.785,-0.33l-5.595,-1.673l0.14,-1.111l10.161,3.034c1.398,0.418 2.366,1.088 2.901,2.009c0.536,0.921 0.725,2.009 0.566,3.266Z" style="fill:#fff;fill-rule:nonzero;stroke:#fff;stroke-width:1px;stroke-miterlimit:5;"/><path d="M193.617,111.702l0.001,-1.12l6.859,1.143l0,-0.06c-0.386,-0.2 -0.74,-0.417 -1.06,-0.651c-0.319,-0.233 -0.596,-0.496 -0.829,-0.79c-0.233,-0.293 -0.413,-0.623 -0.54,-0.99c-0.126,-0.367 -0.19,-0.777 -0.189,-1.23c0,-1.08 0.35,-1.903 1.051,-2.47c0.7,-0.566 1.677,-0.849 2.93,-0.849c0.813,0.001 1.627,0.098 2.44,0.291c0.813,0.194 1.543,0.491 2.19,0.891c0.646,0.4 1.172,0.904 1.579,1.511c0.406,0.607 0.609,1.33 0.609,2.17c-0,0.827 -0.181,1.503 -0.541,2.03c-0.36,0.526 -0.86,0.896 -1.5,1.109l-0,0.06l1.8,0.301l-0.001,1.12l-14.799,-2.466Zm14.041,-1.874c0,-0.52 -0.093,-0.99 -0.28,-1.41c-0.186,-0.42 -0.443,-0.784 -0.769,-1.091c-0.327,-0.307 -0.717,-0.563 -1.17,-0.77c-0.453,-0.207 -0.946,-0.357 -1.48,-0.451l-1.26,-0.22c-0.186,-0.027 -0.356,-0.047 -0.509,-0.06c-0.154,-0.014 -0.304,-0.021 -0.45,-0.021c-0.84,0 -1.531,0.203 -2.071,0.61c-0.54,0.406 -0.81,1.043 -0.81,1.909c-0.001,0.427 0.079,0.84 0.239,1.24c0.16,0.4 0.413,0.774 0.76,1.121c0.319,0.306 0.703,0.59 1.149,0.85c0.447,0.26 0.95,0.437 1.51,0.531l2.58,0.441c0.347,0.066 0.677,0.053 0.99,-0.04c0.313,-0.093 0.587,-0.253 0.82,-0.48c0.234,-0.226 0.417,-0.523 0.55,-0.889c0.134,-0.367 0.201,-0.79 0.201,-1.27Z" style="fill:#fff;fill-rule:nonzero;stroke:#fff;stroke-width:1px;stroke-miterlimit:5;"/><path d="M208.025,98.139c0.077,0.636 0.042,1.207 -0.105,1.715c-0.146,0.508 -0.383,0.943 -0.708,1.305c-0.326,0.361 -0.733,0.656 -1.223,0.883c-0.49,0.227 -1.032,0.376 -1.628,0.448c-1.019,0.123 -1.952,0.102 -2.798,-0.065c-0.846,-0.166 -1.582,-0.446 -2.207,-0.841c-0.625,-0.395 -1.129,-0.894 -1.511,-1.5c-0.382,-0.605 -0.618,-1.285 -0.709,-2.039c-0.077,-0.636 -0.042,-1.207 0.105,-1.715c0.146,-0.508 0.383,-0.943 0.708,-1.305c0.326,-0.361 0.733,-0.656 1.223,-0.883c0.49,-0.227 1.032,-0.376 1.628,-0.448c1.019,-0.123 1.952,-0.102 2.798,0.065c0.846,0.166 1.582,0.447 2.207,0.841c0.625,0.395 1.129,0.894 1.511,1.5c0.382,0.605 0.618,1.285 0.709,2.039Zm-1.002,0.041c-0.126,-1.046 -0.558,-1.85 -1.294,-2.412c-0.736,-0.563 -1.696,-0.867 -2.878,-0.912l-1.128,-0.045c-0.229,-0.012 -0.417,-0.017 -0.563,-0.012c-0.147,0.004 -0.306,0.016 -0.477,0.037c-0.909,0.11 -1.589,0.434 -2.038,0.972c-0.45,0.537 -0.619,1.27 -0.507,2.196c0.126,1.046 0.558,1.85 1.294,2.412c0.736,0.563 1.696,0.867 2.878,0.912l1.128,0.045c0.229,0.012 0.417,0.017 0.563,0.012c0.147,-0.004 0.306,-0.016 0.477,-0.037c0.909,-0.11 1.589,-0.434 2.038,-0.972c0.45,-0.537 0.619,-1.27 0.507,-2.196Z" style="fill:#fff;fill-rule:nonzero;stroke:#fff;stroke-width:1px;stroke-miterlimit:5;"/><path d="M205.085,83.839l-2.407,0.183l0.015,0.058c0.86,0.2 1.59,0.517 2.193,0.951c0.602,0.435 1.012,1.093 1.229,1.973c0.26,1.048 0.118,1.931 -0.425,2.65c-0.544,0.718 -1.424,1.227 -2.64,1.529c-0.79,0.195 -1.599,0.296 -2.429,0.302c-0.829,0.006 -1.609,-0.107 -2.34,-0.338c-0.73,-0.231 -1.365,-0.592 -1.906,-1.084c-0.54,-0.491 -0.911,-1.144 -1.113,-1.96c-0.199,-0.802 -0.187,-1.502 0.036,-2.1c0.223,-0.598 0.62,-1.077 1.19,-1.438l-0.015,-0.058l-1.819,0.141l-0.269,-1.087l10.431,-0.81l0.269,1.088Zm-0.017,3.094c-0.103,-0.414 -0.28,-0.796 -0.531,-1.146c-0.251,-0.35 -0.587,-0.651 -1.007,-0.904c-0.384,-0.221 -0.824,-0.404 -1.32,-0.549c-0.496,-0.145 -1.027,-0.196 -1.594,-0.152l-2.61,0.193c-0.349,0.031 -0.665,0.127 -0.949,0.286c-0.283,0.16 -0.511,0.377 -0.683,0.653c-0.172,0.277 -0.278,0.609 -0.32,0.997c-0.041,0.388 -0.004,0.814 0.111,1.28c0.125,0.505 0.329,0.939 0.611,1.302c0.282,0.363 0.619,0.657 1.011,0.883c0.393,0.225 0.833,0.381 1.321,0.466c0.488,0.085 1.002,0.109 1.543,0.072l1.276,-0.09c0.187,-0.019 0.357,-0.04 0.509,-0.064c0.152,-0.024 0.299,-0.053 0.442,-0.089c0.815,-0.201 1.436,-0.565 1.862,-1.089c0.427,-0.525 0.536,-1.207 0.328,-2.049Z" style="fill:#fff;fill-rule:nonzero;stroke:#fff;stroke-width:1px;stroke-miterlimit:5;"/><path d="M202.744,76.23l-9.286,1.972l1.162,2.939l-0.951,0.204l-1.567,-3.962l2.342,-0.496l-0.037,-0.093c-0.398,-0.028 -0.771,-0.092 -1.119,-0.192c-0.347,-0.099 -0.67,-0.244 -0.967,-0.434c-0.298,-0.191 -0.567,-0.436 -0.807,-0.735c-0.24,-0.3 -0.448,-0.672 -0.625,-1.119l-0.691,-1.748l1.089,-0.237l0.735,1.86c0.373,0.942 0.942,1.584 1.708,1.927c0.257,0.142 0.612,0.267 1.063,0.375c0.451,0.109 0.955,0.103 1.51,-0.016l6.029,-1.287l0.412,1.042Z" style="fill:#fff;fill-rule:nonzero;stroke:#fff;stroke-width:1px;stroke-miterlimit:5;"/><path d="M193.806,62.425l0.029,0.053c0.882,-0.019 1.669,0.108 2.359,0.381c0.691,0.273 1.25,0.809 1.678,1.608c0.51,0.952 0.59,1.843 0.241,2.673c-0.35,0.83 -1.077,1.541 -2.182,2.133c-0.717,0.384 -1.477,0.681 -2.279,0.891c-0.802,0.211 -1.586,0.294 -2.351,0.25c-0.765,-0.044 -1.469,-0.238 -2.114,-0.581c-0.645,-0.343 -1.166,-0.884 -1.563,-1.625c-0.39,-0.729 -0.551,-1.41 -0.482,-2.044c0.069,-0.635 0.335,-1.197 0.799,-1.687l-0.029,-0.053l-6.027,2.048l-0.529,-0.987l14.209,-4.818l0.528,0.987l-2.287,0.771Zm3.034,2.232c-0.202,-0.376 -0.467,-0.702 -0.797,-0.98c-0.33,-0.277 -0.73,-0.486 -1.199,-0.628c-0.427,-0.119 -0.899,-0.188 -1.415,-0.207c-0.517,-0.018 -1.044,0.064 -1.581,0.246l-2.483,0.83c-0.33,0.117 -0.613,0.287 -0.849,0.512c-0.235,0.224 -0.402,0.491 -0.501,0.801c-0.098,0.31 -0.12,0.658 -0.064,1.044c0.055,0.386 0.196,0.791 0.423,1.214c0.245,0.459 0.547,0.831 0.904,1.116c0.356,0.285 0.756,0.487 1.198,0.606c0.441,0.119 0.909,0.159 1.403,0.122c0.494,-0.038 0.999,-0.142 1.513,-0.311l1.214,-0.401c0.178,-0.065 0.337,-0.127 0.478,-0.188c0.142,-0.06 0.277,-0.125 0.406,-0.195c0.741,-0.396 1.253,-0.901 1.537,-1.515c0.284,-0.613 0.222,-1.302 -0.187,-2.066Z" style="fill:#fff;fill-rule:nonzero;stroke:#fff;stroke-width:1px;stroke-miterlimit:5;"/><path d="M191.197,53.343c1.158,1.663 1.459,3.249 0.901,4.759l-1.021,-0.312c0.234,-0.667 0.295,-1.32 0.184,-1.957c-0.111,-0.638 -0.41,-1.307 -0.898,-2.007c-0.579,-0.831 -1.202,-1.376 -1.87,-1.635c-0.667,-0.258 -1.312,-0.17 -1.936,0.265c-0.46,0.32 -0.683,0.687 -0.671,1.101c0.012,0.414 0.155,0.875 0.428,1.384l0.721,1.35c0.177,0.348 0.327,0.698 0.451,1.05c0.124,0.353 0.184,0.697 0.182,1.031c-0.002,0.335 -0.081,0.654 -0.236,0.957c-0.154,0.302 -0.418,0.583 -0.79,0.842c-0.437,0.305 -0.883,0.482 -1.337,0.53c-0.454,0.048 -0.898,-0.012 -1.333,-0.181c-0.434,-0.169 -0.848,-0.425 -1.241,-0.768c-0.394,-0.343 -0.758,-0.756 -1.094,-1.237c-0.556,-0.799 -0.89,-1.541 -1.002,-2.227c-0.112,-0.686 -0.08,-1.309 0.098,-1.872l1.031,0.257c-0.07,0.179 -0.121,0.385 -0.154,0.619c-0.032,0.233 -0.026,0.493 0.019,0.779c0.045,0.286 0.133,0.594 0.266,0.924c0.132,0.33 0.332,0.687 0.599,1.07c0.548,0.787 1.122,1.29 1.72,1.507c0.598,0.217 1.176,0.131 1.734,-0.257c0.23,-0.161 0.397,-0.334 0.502,-0.521c0.106,-0.187 0.158,-0.386 0.157,-0.597c-0,-0.211 -0.042,-0.434 -0.124,-0.669c-0.083,-0.235 -0.187,-0.479 -0.315,-0.731l-0.693,-1.345c-0.173,-0.319 -0.322,-0.649 -0.447,-0.993c-0.126,-0.343 -0.193,-0.678 -0.201,-1.005c-0.009,-0.328 0.063,-0.65 0.216,-0.967c0.153,-0.318 0.42,-0.61 0.803,-0.877c0.449,-0.312 0.908,-0.498 1.379,-0.558c0.47,-0.059 0.94,-0.009 1.409,0.152c0.47,0.16 0.921,0.423 1.353,0.788c0.433,0.365 0.836,0.815 1.21,1.351Z" style="fill:#fff;fill-rule:nonzero;stroke:#fff;stroke-width:1px;stroke-miterlimit:5;"/></g><g><path d="M77.761,32.162l-1.021,0.461l-1.785,-6.721l-0.055,0.025c-0.023,0.434 -0.075,0.845 -0.156,1.233c-0.081,0.388 -0.207,0.748 -0.378,1.082c-0.171,0.333 -0.398,0.633 -0.68,0.899c-0.282,0.267 -0.63,0.493 -1.043,0.68c-0.984,0.444 -1.878,0.464 -2.683,0.06c-0.805,-0.405 -1.465,-1.178 -1.981,-2.321c-0.335,-0.741 -0.581,-1.522 -0.74,-2.343c-0.158,-0.821 -0.189,-1.608 -0.09,-2.362c0.098,-0.754 0.34,-1.441 0.726,-2.061c0.385,-0.621 0.961,-1.104 1.726,-1.45c0.753,-0.34 1.444,-0.454 2.072,-0.343c0.629,0.111 1.172,0.415 1.629,0.91l0.055,-0.025l-0.467,-1.764l1.02,-0.461l3.851,14.501Zm-7.493,-12.022c-0.474,0.215 -0.864,0.493 -1.17,0.836c-0.306,0.343 -0.531,0.727 -0.676,1.15c-0.145,0.424 -0.219,0.885 -0.22,1.384c-0.002,0.498 0.064,1.009 0.199,1.534l0.318,1.239c0.052,0.181 0.104,0.344 0.155,0.489c0.051,0.145 0.107,0.285 0.167,0.418c0.346,0.766 0.815,1.311 1.408,1.636c0.593,0.325 1.284,0.309 2.074,-0.048c0.389,-0.176 0.733,-0.419 1.031,-0.729c0.299,-0.311 0.535,-0.695 0.708,-1.154c0.148,-0.418 0.249,-0.884 0.302,-1.398c0.053,-0.514 0.007,-1.045 -0.139,-1.594l-0.661,-2.533c-0.082,-0.343 -0.23,-0.638 -0.444,-0.885c-0.214,-0.248 -0.472,-0.431 -0.775,-0.55c-0.302,-0.119 -0.648,-0.164 -1.037,-0.135c-0.389,0.029 -0.803,0.143 -1.24,0.34Z" style="fill:#fff;fill-rule:nonzero;stroke:#fff;stroke-width:1px;stroke-miterlimit:5;"/><path d="M58.482,20.559c0.685,-0.413 1.332,-0.663 1.942,-0.749c0.609,-0.087 1.181,-0.035 1.717,0.156l-0.294,1.064c-0.414,-0.171 -0.861,-0.228 -1.341,-0.173c-0.48,0.056 -1.006,0.256 -1.577,0.6c-0.856,0.516 -1.418,1.154 -1.684,1.913c-0.266,0.76 -0.173,1.696 0.28,2.809l0.92,2.341l0.051,-0.031c-0.082,-0.885 -0.005,-1.674 0.231,-2.369c0.235,-0.694 0.718,-1.261 1.449,-1.702c0.754,-0.454 1.472,-0.587 2.154,-0.398c0.681,0.188 1.26,0.677 1.734,1.465c0.097,0.16 0.186,0.328 0.269,0.504c0.082,0.175 0.174,0.373 0.275,0.592l2.329,5.882l-0.959,0.578l-2.295,-5.786c-0.075,-0.203 -0.156,-0.388 -0.241,-0.555c-0.085,-0.167 -0.175,-0.33 -0.272,-0.49c-0.337,-0.56 -0.743,-0.91 -1.217,-1.052c-0.475,-0.142 -0.992,-0.045 -1.552,0.292c-0.811,0.489 -1.287,1.235 -1.43,2.239c-0.02,0.121 -0.039,0.277 -0.057,0.467c-0.018,0.19 -0.023,0.407 -0.016,0.651c0.007,0.245 0.033,0.502 0.078,0.77c0.046,0.269 0.121,0.543 0.227,0.821l2.15,5.43l-0.96,0.578l-3.907,-9.858c-0.537,-1.357 -0.61,-2.531 -0.219,-3.522c0.392,-0.991 1.13,-1.813 2.215,-2.467Z" style="fill:#fff;fill-rule:nonzero;stroke:#fff;stroke-width:1px;stroke-miterlimit:5;"/><path d="M46.15,34.434l5.136,7.983l2.336,-2.129l0.528,0.817l-3.148,2.87l-1.294,-2.014l-0.074,0.067c0.114,0.383 0.187,0.755 0.217,1.115c0.031,0.36 0.01,0.713 -0.063,1.059c-0.073,0.346 -0.206,0.684 -0.401,1.015c-0.195,0.33 -0.469,0.657 -0.824,0.981l-1.39,1.266l-0.608,-0.934l1.479,-1.347c0.748,-0.683 1.147,-1.443 1.195,-2.281c0.042,-0.291 0.034,-0.666 -0.025,-1.127c-0.059,-0.46 -0.243,-0.929 -0.551,-1.405l-3.341,-5.181l0.828,-0.755Z" style="fill:#fff;fill-rule:nonzero;stroke:#fff;stroke-width:1px;stroke-miterlimit:5;"/><path d="M34.86,45.819l1.523,1.872l0.04,-0.045c-0.327,-0.82 -0.483,-1.601 -0.469,-2.343c0.014,-0.743 0.32,-1.454 0.919,-2.135c0.713,-0.811 1.52,-1.198 2.42,-1.161c0.9,0.037 1.82,0.469 2.761,1.297c0.611,0.538 1.155,1.145 1.633,1.823c0.478,0.678 0.83,1.383 1.056,2.115c0.227,0.732 0.292,1.46 0.197,2.184c-0.096,0.724 -0.421,1.401 -0.976,2.032c-0.546,0.621 -1.128,1.01 -1.746,1.167c-0.618,0.158 -1.238,0.106 -1.859,-0.157l-0.04,0.045l1.153,1.414l-0.74,0.841l-6.612,-8.108l0.74,-0.841Zm2.552,-1.75c-0.281,0.32 -0.494,0.683 -0.638,1.089c-0.144,0.406 -0.201,0.854 -0.17,1.343c0.038,0.442 0.139,0.908 0.302,1.398c0.164,0.49 0.425,0.955 0.784,1.395l1.646,2.035c0.225,0.269 0.484,0.474 0.777,0.616c0.292,0.142 0.601,0.205 0.926,0.189c0.325,-0.016 0.658,-0.118 1,-0.305c0.343,-0.187 0.672,-0.461 0.99,-0.821c0.343,-0.391 0.583,-0.805 0.721,-1.244c0.137,-0.438 0.186,-0.883 0.148,-1.334c-0.038,-0.451 -0.161,-0.902 -0.37,-1.351c-0.208,-0.45 -0.481,-0.886 -0.82,-1.308l-0.801,-0.998c-0.122,-0.143 -0.237,-0.27 -0.343,-0.382c-0.106,-0.111 -0.215,-0.215 -0.325,-0.312c-0.63,-0.555 -1.283,-0.858 -1.957,-0.909c-0.674,-0.052 -1.297,0.248 -1.87,0.899Z" style="fill:#fff;fill-rule:nonzero;stroke:#fff;stroke-width:1px;stroke-miterlimit:5;"/><path d="M42.228,60.374l-0.632,0.925l-5.019,-4.814l-0.034,0.05c0.206,0.383 0.375,0.761 0.508,1.135c0.132,0.373 0.212,0.746 0.239,1.12c0.027,0.374 -0.011,0.748 -0.113,1.122c-0.102,0.375 -0.282,0.749 -0.537,1.123c-0.61,0.891 -1.364,1.373 -2.261,1.446c-0.898,0.073 -1.864,-0.245 -2.899,-0.952c-0.671,-0.459 -1.288,-0.998 -1.85,-1.617c-0.562,-0.618 -0.998,-1.275 -1.306,-1.971c-0.308,-0.695 -0.458,-1.408 -0.452,-2.138c0.007,-0.73 0.248,-1.442 0.722,-2.135c0.466,-0.683 0.997,-1.14 1.591,-1.371c0.595,-0.232 1.216,-0.255 1.865,-0.07l0.034,-0.049l-1.316,-1.264l0.632,-0.925l10.828,10.385Zm-12.651,-6.373c-0.293,0.429 -0.481,0.87 -0.564,1.322c-0.083,0.452 -0.077,0.897 0.02,1.334c0.096,0.438 0.274,0.87 0.531,1.296c0.258,0.427 0.58,0.829 0.968,1.207l0.916,0.893c0.139,0.127 0.268,0.24 0.387,0.337c0.119,0.098 0.239,0.188 0.36,0.271c0.693,0.474 1.378,0.696 2.053,0.665c0.675,-0.031 1.258,-0.404 1.747,-1.12c0.241,-0.352 0.408,-0.738 0.502,-1.159c0.093,-0.42 0.095,-0.871 0.004,-1.353c-0.091,-0.434 -0.247,-0.884 -0.469,-1.351c-0.222,-0.467 -0.538,-0.897 -0.947,-1.29l-1.882,-1.819c-0.248,-0.251 -0.528,-0.426 -0.84,-0.526c-0.311,-0.1 -0.627,-0.122 -0.947,-0.067c-0.321,0.056 -0.64,0.197 -0.957,0.424c-0.317,0.228 -0.611,0.54 -0.882,0.936Z" style="fill:#fff;fill-rule:nonzero;stroke:#fff;stroke-width:1px;stroke-miterlimit:5;"/><path d="M36.763,68.972l-0.515,0.995l-5.567,-4.168l-0.028,0.053c0.252,0.356 0.466,0.71 0.643,1.065c0.176,0.354 0.301,0.715 0.373,1.083c0.072,0.368 0.08,0.744 0.024,1.128c-0.056,0.383 -0.188,0.777 -0.397,1.179c-0.497,0.959 -1.186,1.529 -2.068,1.71c-0.883,0.181 -1.88,-0.016 -2.993,-0.593c-0.722,-0.374 -1.4,-0.834 -2.033,-1.38c-0.633,-0.546 -1.145,-1.145 -1.535,-1.797c-0.39,-0.653 -0.627,-1.342 -0.709,-2.068c-0.082,-0.726 0.071,-1.461 0.457,-2.207c0.38,-0.734 0.851,-1.252 1.413,-1.554c0.562,-0.302 1.176,-0.401 1.843,-0.296l0.027,-0.053l-1.46,-1.095l0.515,-0.994l12.01,8.992Zm-13.331,-4.789c-0.239,0.462 -0.373,0.922 -0.4,1.381c-0.028,0.459 0.033,0.899 0.182,1.322c0.149,0.422 0.377,0.83 0.685,1.222c0.307,0.392 0.676,0.752 1.107,1.08l1.017,0.775c0.154,0.11 0.296,0.206 0.426,0.288c0.13,0.082 0.26,0.157 0.39,0.225c0.746,0.386 1.452,0.523 2.119,0.41c0.666,-0.112 1.199,-0.554 1.597,-1.323c0.197,-0.379 0.316,-0.783 0.358,-1.211c0.042,-0.429 -0.012,-0.877 -0.16,-1.345c-0.143,-0.419 -0.353,-0.847 -0.63,-1.283c-0.277,-0.437 -0.643,-0.825 -1.097,-1.165l-2.088,-1.578c-0.278,-0.219 -0.577,-0.359 -0.898,-0.42c-0.321,-0.061 -0.637,-0.045 -0.949,0.049c-0.311,0.094 -0.61,0.273 -0.898,0.537c-0.287,0.265 -0.54,0.61 -0.761,1.036Z" style="fill:#fff;fill-rule:nonzero;stroke:#fff;stroke-width:1px;stroke-miterlimit:5;"/><path d="M29.669,80.546c0.121,-0.325 0.267,-0.527 0.438,-0.606c0.171,-0.078 0.332,-0.09 0.482,-0.034c0.063,0.023 0.132,0.056 0.209,0.098c0.076,0.043 0.144,0.082 0.202,0.118c0.198,0.116 0.337,0.27 0.415,0.463c0.078,0.192 0.059,0.444 -0.057,0.757c-0.12,0.325 -0.266,0.527 -0.437,0.606c-0.172,0.079 -0.332,0.09 -0.482,0.035c-0.063,-0.024 -0.133,-0.056 -0.209,-0.099c-0.077,-0.043 -0.144,-0.082 -0.202,-0.117c-0.199,-0.117 -0.337,-0.271 -0.415,-0.463c-0.078,-0.193 -0.059,-0.445 0.056,-0.758Zm-11.845,-6.369c0.12,-0.325 0.3,-0.543 0.54,-0.653c0.24,-0.11 0.498,-0.114 0.773,-0.013c0.087,0.033 0.181,0.078 0.28,0.136c0.099,0.058 0.232,0.132 0.398,0.222l6.824,4.148l1.347,-3.639l0.845,0.483l-1.743,4.708l-8.22,-4.984l-0.217,0.239l1.689,5.424l-0.872,0.317l-1.11,-3.567c-0.13,-0.418 -0.242,-0.769 -0.336,-1.052c-0.094,-0.284 -0.165,-0.534 -0.213,-0.751c-0.047,-0.216 -0.071,-0.403 -0.07,-0.559c0.001,-0.156 0.029,-0.309 0.085,-0.459Z" style="fill:#fff;fill-rule:nonzero;stroke:#fff;stroke-width:1px;stroke-miterlimit:5;"/><path d="M14.336,85.181c0.159,-0.675 0.575,-0.934 1.25,-0.775c0.182,0.042 0.424,0.12 0.726,0.232l7.288,3.087l0.772,-3.291l0.898,0.375l-0.598,2.551c-0.064,0.272 -0.055,0.494 0.029,0.664c0.083,0.17 0.261,0.315 0.535,0.434l2.655,1.116l-0.242,1.032l-3.407,-1.416l-1.065,4.537l-0.898,-0.375l1.065,-4.537l-7.892,-3.311l-0.22,0.236l1.934,5.528l-0.815,0.384l-1.389,-3.798c-0.282,-0.723 -0.474,-1.279 -0.575,-1.665c-0.101,-0.387 -0.118,-0.723 -0.051,-1.008Z" style="fill:#fff;fill-rule:nonzero;stroke:#fff;stroke-width:1px;stroke-miterlimit:5;"/></g></g><g id="レイヤー1"><path d="M80.327,70.06c-2.79,1.953 -12.399,9.017 -16.874,16.662c-1.661,2.838 -1.841,5.808 -1.577,9.123c0.319,4.002 1.35,8.603 -0.313,14.294c-0.614,2.099 -2.395,3.288 -4.613,4.994c-2.799,2.153 -6.302,4.821 -9.928,9.499c-2.338,3.015 -4.698,9.049 -5.552,15.06c-0.586,4.122 -0.453,8.221 0.719,11.362c0.934,2.502 5.386,11.273 11.208,17.198c4.351,4.427 9.503,7.14 14.491,5.716c3.506,-1.001 5.381,-2.17 6.94,-3.211c1.797,-1.2 3.048,-2.178 7.168,-2.158c4.311,0.022 7.976,1.63 11.304,3.806c3.614,2.364 6.842,5.393 10.003,8.043c4.79,4.015 9.518,7.102 14.841,6.851c9.499,-0.447 22.853,0.044 32.601,-7.121c12.576,-9.245 14.613,-11.002 19.574,-24.321c1.519,-4.078 2.029,-10.582 1.392,-17.745c-0.923,-10.37 -4.22,-22.118 -9.84,-29.704c-0.176,-1.41 -1.132,-9.514 -1.889,-25.231c-0.825,-17.152 4.868,-37.467 12.526,-52.507c1.522,-2.989 1.353,-5.125 0.605,-6.372c-0.85,-1.417 -2.71,-2.349 -5.584,-1.963c-2.517,0.337 -6.12,1.682 -10.301,3.969c-8.301,4.539 -19.082,12.816 -28.161,23.512l-0.078,-0.624c-0.044,-0.753 -0.455,-1.437 -1.1,-1.828c-0.645,-0.392 -1.442,-0.442 -2.13,-0.134c-1.462,0.654 -2.739,1.684 -3.948,2.989c0.09,-0.395 0.191,-0.781 0.308,-1.155c0.325,-1.041 -0.127,-2.166 -1.081,-2.694c-0.954,-0.527 -2.147,-0.312 -2.856,0.516l-0.403,0.451c1.076,-6.277 2.258,-12.358 1.821,-17.1c-0.492,-5.34 -2.795,-9.214 -8.418,-10.668c-3.112,-0.805 -6.117,-0.034 -8.944,2.002c-2.429,1.749 -4.748,4.49 -6.877,7.855c-8.268,13.071 -13.911,35.862 -15.034,40.634Zm88.694,-43.163c-0.105,0.416 -0.305,1.097 -0.606,1.689c-7.993,15.697 -13.883,36.911 -13.021,54.812c0.763,15.839 1.504,23.031 1.874,25.413c0.199,1.285 0.559,1.865 0.649,1.982c5.34,6.957 8.355,18.017 9.218,27.726c0.565,6.348 0.226,12.121 -1.12,15.734c-4.544,12.199 -6.473,13.757 -17.991,22.223c-8.979,6.6 -21.347,5.823 -30.097,6.235c-2.519,0.118 -4.817,-0.865 -7.087,-2.315c-2.609,-1.667 -5.156,-3.951 -7.831,-6.245c-5.921,-5.08 -12.445,-10.103 -20.99,-10.145c-4.741,-0.023 -6.719,0.959 -8.687,2.23c-1.542,0.995 -3.058,2.274 -6.705,3.315c-3.5,0.999 -6.9,-1.412 -9.953,-4.519c-5.28,-5.373 -9.334,-13.315 -10.181,-15.584c-0.939,-2.516 -0.945,-5.807 -0.475,-9.11c0.728,-5.13 2.639,-10.318 4.634,-12.892c4.019,-5.184 7.903,-7.667 10.662,-9.895c2.32,-1.873 3.937,-3.656 4.658,-6.123c1.567,-5.362 1.106,-9.864 0.688,-13.834c-0.336,-3.187 -0.759,-5.961 0.757,-8.551c4.821,-8.237 16.209,-15.677 16.209,-15.677c0.5,-0.328 0.852,-0.839 0.981,-1.423c-0,0 5.698,-25.932 14.636,-40.061c1.773,-2.803 3.656,-5.127 5.679,-6.583c1.625,-1.171 3.321,-1.746 5.11,-1.283c4.493,1.162 5.253,4.987 5.046,9.756c-0.259,5.962 -2.14,13.318 -2.968,20.355c-0.172,1.467 0.656,2.103 1.407,2.416c0.312,0.13 1.318,0.494 2.434,-0.384c0.121,-0.095 0.312,-0.276 0.551,-0.519c-0.086,0.899 -0.175,1.819 -0.284,2.757c-0.123,1.055 0.494,2.057 1.492,2.422c0.998,0.365 2.116,-0.002 2.703,-0.887c1.363,-2.054 2.556,-3.969 3.81,-5.546c0.217,-0.273 0.436,-0.537 0.657,-0.787c0.141,0.872 0.311,1.656 0.504,2.077c0.558,1.217 1.506,1.56 2.152,1.614c0.656,0.054 1.485,-0.076 2.201,-1.005c11.192,-14.517 26.158,-25.087 34.966,-28.436c0.761,-0.29 1.471,-0.522 2.125,-0.693c0.766,-0.201 1.684,-0.249 2.193,-0.259Z" style="fill:#fff;stroke:#fff;stroke-width:4.6px;stroke-linecap:butt;stroke-miterlimit:2;"/><path d="M131.497,154.035c3.833,0.13 32.279,1.744 56.085,12.898c1.149,0.538 2.52,0.042 3.058,-1.107c0.539,-1.15 0.043,-2.52 -1.107,-3.059c-24.887,-11.66 -54.683,-13.236 -58.035,-13.335c-18.043,-0.532 -15.935,3.953 -0.256,4.607c0.086,0.003 0.171,0.002 0.255,-0.004Z" style="stroke:#fff;stroke-width:4.6px;stroke-linecap:butt;stroke-miterlimit:2;"/><path d="M126.172,160.94c13.299,1.191 29.939,8.424 48.334,18.674c1.109,0.618 2.511,0.219 3.128,-0.89c0.618,-1.108 0.22,-2.51 -0.889,-3.128c-19.073,-10.628 -36.374,-18.002 -50.163,-19.237c-1.264,-0.113 -2.383,0.821 -2.496,2.085c-0.113,1.265 0.822,2.383 2.086,2.496Z" style="stroke:#fff;stroke-width:4.6px;stroke-linecap:butt;stroke-miterlimit:2;"/><path d="M122.049,166.755c17.469,3.331 32.147,8.765 42.313,17.714c0.953,0.838 2.408,0.746 3.246,-0.207c0.839,-0.953 0.746,-2.407 -0.206,-3.246c-10.703,-9.421 -26.101,-15.273 -44.492,-18.78c-1.246,-0.237 -2.452,0.582 -2.69,1.829c-0.237,1.247 0.582,2.452 1.829,2.69Z" style="stroke:#fff;stroke-width:4.6px;stroke-linecap:butt;stroke-miterlimit:2;"/><path d="M63.398,154.132c-16.063,4.504 -29.08,9.509 -37.511,15.188c-1.053,0.709 -1.332,2.139 -0.623,3.192c0.709,1.053 2.14,1.332 3.193,0.623c8.126,-5.474 20.7,-10.232 36.183,-14.574c1.223,-0.343 1.937,-1.613 1.594,-2.835c-0.343,-1.223 -1.613,-1.937 -2.836,-1.594Z" style="stroke:#fff;stroke-width:4.6px;stroke-linecap:butt;stroke-miterlimit:2;"/><path d="M59.573,140.591c-17.1,1.451 -32.972,4.381 -47.154,9.333c-1.199,0.418 -1.832,1.731 -1.414,2.929c0.419,1.199 1.731,1.832 2.93,1.413c13.842,-4.832 29.337,-7.676 46.027,-9.091c1.265,-0.107 2.205,-1.221 2.098,-2.486c-0.108,-1.265 -1.222,-2.205 -2.487,-2.098Z" style="stroke:#fff;stroke-width:4.6px;stroke-linecap:butt;stroke-miterlimit:2;"/><path d="M64.103,133.008c-16.272,-3.155 -33.345,-3.905 -51.37,-1.798c-1.261,0.147 -2.165,1.29 -2.018,2.551c0.148,1.261 1.291,2.165 2.552,2.017c17.53,-2.048 34.135,-1.322 49.96,1.745c1.247,0.242 2.455,-0.574 2.696,-1.82c0.242,-1.246 -0.574,-2.454 -1.82,-2.695Z" style="stroke:#fff;stroke-width:4.6px;stroke-linecap:butt;stroke-miterlimit:2;"/><path d="M63.951,120.794c-9.819,-4.713 -23.326,-9.437 -41.883,-14.15c-1.228,-0.312 -2.479,0.432 -2.791,1.66c-0.312,1.229 0.432,2.48 1.661,2.792c18.174,4.616 31.408,9.223 41.025,13.839c1.142,0.549 2.516,0.067 3.064,-1.076c0.549,-1.143 0.066,-2.516 -1.076,-3.065Z" style="stroke:#fff;stroke-width:4.6px;stroke-linecap:butt;stroke-miterlimit:2;"/><path d="M99.252,176.844c0.547,0.36 0.86,0.574 0.86,0.574c1.023,0.69 2.408,0.449 3.138,-0.546c0.731,-0.995 0.546,-2.388 -0.418,-3.158c-0,-0 -0.464,-0.383 -1.504,-0.985c-3.466,-2.205 -12.726,-7.861 -17.514,-8.545c-6.451,-0.922 -13.755,4.298 -13.755,4.298c-0.864,0.633 -1.176,1.778 -0.755,2.761c0.422,0.984 1.467,1.547 2.521,1.358c4.99,-0.896 10.053,-1.344 15.366,-0.118c6.93,1.599 10.631,3.5 12.061,4.361Z" style="fill:#fff;stroke:#fff;stroke-width:4.6px;stroke-linecap:butt;stroke-miterlimit:2;"/><path d="M66.518,95.229c-0.382,-0.499 -0.85,-0.758 -1.336,-0.879c-0.549,-0.136 -1.218,-0.124 -1.924,0.331c-0.314,0.202 -0.828,0.698 -1.29,1.532c-0.915,1.653 -2.23,5.35 -2.507,7.376c-0.262,1.918 -0.052,5.587 0.279,7.889c0.196,1.362 0.528,2.35 0.731,2.681c0.583,0.947 1.383,1.142 1.937,1.169c0.632,0.03 1.338,-0.135 1.941,-0.866c0.725,-0.879 1.354,-2.248 1.806,-3.909c0.871,-3.194 1.193,-7.593 1.172,-10.644c-0.011,-1.669 -0.142,-2.974 -0.3,-3.585c-0.137,-0.531 -0.348,-0.885 -0.509,-1.095Z" style="fill:#fff;stroke:#fff;stroke-width:4.6px;stroke-linecap:butt;stroke-miterlimit:2;"/></g><g id="レイヤー11" serif:id="レイヤー1"><path d="M64.692,96.628c-0.47,-0.614 -2.609,4.764 -2.952,7.272c-0.382,2.799 0.38,9.65 0.834,9.099c2.679,-3.248 2.768,-15.522 2.118,-16.371Z" style="fill:none;stroke:#000;stroke-width:4.6px;"/><path d="M82.364,71.448c0,-0 11.907,-53.882 28.243,-49.656c11.327,2.93 5.453,18.414 3.784,32.603c-0.061,0.523 5.536,-6.015 5.536,-6.015c-0.908,2.91 -0.982,6.45 -1.428,10.282c2.806,-4.229 4.931,-7.874 8.198,-9.335c-0,-0 0.39,6.634 1.221,5.556c19.169,-24.864 49.209,-38.345 42.543,-25.255c-7.825,15.369 -13.617,36.133 -12.773,53.66c0.944,19.61 1.845,25.838 2.051,26.106c9.29,12.104 12.009,36.047 8.428,45.661c-4.753,12.759 -6.735,14.416 -18.783,23.272c-9.363,6.883 -22.224,6.248 -31.348,6.678c-11.956,0.563 -20.093,-18.624 -36.028,-18.702c-8.099,-0.04 -6.799,3.187 -14.75,5.457c-10.608,3.028 -21.433,-17.533 -22.917,-21.509c-2.639,-7.072 0.885,-19.555 4.496,-24.212c6.943,-8.956 13.448,-10.186 14.93,-15.256c2.933,-10.035 -1.867,-16.861 1.668,-22.9c5.044,-8.618 16.929,-16.435 16.929,-16.435Z" style="fill:#ffdaac;stroke:#803f00;stroke-width:4.59px;"/><path d="M93.25,78.754c-0,-0 0.708,-2.657 5.314,-4.429" style="fill:none;stroke:#803f00;stroke-width:4.6px;"/><path d="M99.627,80.526c1.772,-3.189 2.126,-3.366 4.429,-4.784" style="fill:none;stroke:#803f00;stroke-width:4.6px;"/><path d="M104.41,79.463c3.012,-1.949 2.48,-3.012 4.606,-3.012" style="fill:none;stroke:#803f00;stroke-width:4.6px;"/><path d="M137.75,133.824c-0.484,-0.236 2.078,3.014 2.913,4.595c0.683,1.293 0.33,1.175 0.33,1.175" style="fill:none;stroke:#803f00;stroke-width:4.6px;"/><path d="M141.966,133.317c1.063,0.533 2.126,1.474 3.189,3.189" style="fill:none;stroke:#803f00;stroke-width:4.6px;"/><path d="M146.041,131.014c1.437,1.338 2.166,2.323 2.657,3.189" style="fill:none;stroke:#803f00;stroke-width:4.6px;"/><path d="M84.923,114.805c-1.422,0.817 -5.032,3.373 -7.086,6.288" style="fill:none;stroke:#803f00;stroke-width:4.6px;"/><path d="M92.187,113.476c-1.347,1.051 -2.614,2.023 -5.138,4.251" style="fill:none;stroke:#803f00;stroke-width:4.6px;"/><path d="M95.116,120.966c1.345,-1.689 2.523,-2.711 3.632,-3.454" style="fill:none;stroke:#803f00;stroke-width:4.6px;"/><path d="M106.642,118.851c-1.14,1.063 -2.29,2.076 -3.189,4.34" style="fill:none;stroke:#803f00;stroke-width:4.6px;"/><path d="M131.337,151.741c-3.185,-0.133 30.001,0.357 57.22,13.109" style="fill:none;stroke:#000;stroke-width:4.6px;"/><path d="M126.377,158.65c13.544,1.212 30.515,8.516 49.248,18.955" style="fill:none;stroke:#000;stroke-width:4.6px;"/><path d="M122.48,164.496c17.929,3.419 32.967,9.062 43.402,18.246" style="fill:none;stroke:#000;stroke-width:4.6px;"/><path d="M64.019,156.347c-15.773,4.423 -28.568,9.304 -36.847,14.88" style="fill:none;stroke:#000;stroke-width:4.6px;"/><path d="M59.768,142.883c-16.895,1.433 -32.579,4.32 -46.591,9.212" style="fill:none;stroke:#000;stroke-width:4.6px;"/><path d="M63.665,135.266c-16.048,-3.112 -32.887,-3.85 -50.665,-1.772" style="fill:none;stroke:#000;stroke-width:4.6px;"/><path d="M62.957,122.865c-9.718,-4.665 -23.088,-9.33 -41.454,-13.995" style="fill:none;stroke:#000;stroke-width:4.59px;"/><path d="M83.552,151.045c-2.339,4.828 -1.945,12.031 0.329,15.007" style="fill:none;stroke:#803f00;stroke-width:4.6px;"/><path d="M83.552,151.045c0.554,-0.465 4.75,-0.868 12.33,-4.1" style="fill:none;stroke:#803f00;stroke-width:4.6px;"/><path d="M73.1,143.781c3.722,4.324 7.192,6.63 10.452,7.264" style="fill:none;stroke:#803f00;stroke-width:4.6px;"/><path d="M127.882,107.808c0,0 9.656,-9.391 11.959,0.441c1.491,6.371 0.653,8.974 -0.931,10.62c-0.904,0.938 -2.227,2.45 -3.321,3.287c-3.012,2.303 -8.761,4.075 -10.275,0.355c-2.126,-5.226 2.568,-14.703 2.568,-14.703Z" style="stroke:#000;stroke-width:4.6px;"/><path d="M129.873,106.092c-0.503,0.282 -3.209,3.082 -1.772,3.596c0.909,0.326 3.749,-0.064 3.579,-1.419c-0.287,-2.287 -1.807,-2.177 -1.807,-2.177Z" style="fill:#fff;"/><path d="M124.684,112.384c-0.141,0.865 -0.36,0.778 -0.339,1.543c0.024,0.873 0.485,0.905 1,0.533c0.466,-0.336 0.598,-1.208 1.215,-1.676c0.549,-0.417 0.333,-1.334 -0.818,-1.413c-0.63,-0.043 -1.058,1.013 -1.058,1.013Z" style="fill:#fff;"/><path d="M170.547,25.764c0,-0 -1.596,2.984 -5.112,7.764c-5.703,7.753 -9.059,25.518 -9.373,29.439c-0.233,2.902 1.818,11.154 1.818,11.154c-0,0 -0.32,-7.488 0.318,-10.756c3.954,-20.267 12.984,-35.698 12.349,-37.601Z" style="stroke:#803f00;stroke-width:4.6px;"/><path d="M71.418,170.337c5.291,-0.949 10.658,-1.395 16.29,-0.095c9.971,2.3 13.688,5.269 13.688,5.269c0,-0 -12.232,-8.24 -17.907,-9.05c-5.676,-0.811 -12.071,3.876 -12.071,3.876Z" style="fill:#e2892c;stroke:#803f00;stroke-width:4.6px;"/></g></g></svg>