<?xml version="1.0" encoding="UTF-8" standalone="no"?><!DOCTYPE svg PUBLIC "-//W3C//DTD SVG 1.1//EN" "http://www.w3.org/Graphics/SVG/1.1/DTD/svg11.dtd"><svg width="100%" height="100%" viewBox="0 0 221 221" version="1.1" xmlns="http://www.w3.org/2000/svg" xmlns:xlink="http://www.w3.org/1999/xlink" xml:space="preserve" xmlns:serif="http://www.serif.com/" style="fill-rule:evenodd;clip-rule:evenodd;stroke-linecap:round;stroke-linejoin:round;stroke-miterlimit:1.5;"><g id="レイヤー2"><circle cx="110.007" cy="110.007" r="107.707" style="fill:#569600;stroke:#254000;stroke-width:4.6px;"/><circle cx="110.007" cy="110.007" r="78.702" style="fill:#fff;stroke:#254000;stroke-width:4.6px;"/><g transform="matrix(0.24,0,0,0.24,-178.609,-248.169)"><g transform="matrix(0.731795,0.681524,-0.681524,0.731795,1456.08,-137.18)"><path d="M919.829,1799.07c-3.333,0 -6.194,-0.5 -8.583,-1.5c-2.389,-1 -4.305,-2.416 -5.75,-4.25l3.25,-3.166c1.167,1.5 2.653,2.666 4.458,3.5c1.806,0.833 4.098,1.25 6.875,1.25c4.167,-0 7.542,-1.056 10.125,-3.167c2.584,-2.111 4.264,-5.667 5.042,-10.667l1.75,-10.5l-0.25,0c-1.611,3.334 -3.625,6 -6.042,8c-2.416,2 -5.513,3 -9.291,3c-4.556,0 -8.014,-1.472 -10.375,-4.416c-2.361,-2.945 -3.542,-6.945 -3.542,-12c0,-3.334 0.417,-6.653 1.25,-9.959c0.833,-3.305 2.083,-6.278 3.75,-8.916c1.667,-2.639 3.764,-4.778 6.292,-6.417c2.528,-1.639 5.514,-2.458 8.958,-2.458c3.445,-0 6.264,0.763 8.458,2.291c2.195,1.528 3.737,3.625 4.625,6.292l0.25,-0l1.25,-7.583l4.667,-0l-7.25,43.583c-1.055,6 -3.319,10.347 -6.792,13.042c-3.472,2.694 -7.847,4.041 -13.125,4.041Zm2.917,-21.666c1.833,-0 3.583,-0.32 5.25,-0.959c1.667,-0.639 3.222,-1.736 4.667,-3.291c1.111,-1.112 2.236,-2.598 3.375,-4.459c1.139,-1.861 1.93,-4.041 2.375,-6.541l1.666,-9.917c0.223,-1.445 0.153,-2.82 -0.208,-4.125c-0.361,-1.306 -1.028,-2.445 -2,-3.417c-0.972,-0.972 -2.208,-1.736 -3.708,-2.291c-1.5,-0.556 -3.25,-0.834 -5.25,-0.834c-4.334,0 -7.806,1.417 -10.417,4.25c-2.611,2.834 -4.305,6.5 -5.083,11l-0.75,4.417c-0.111,0.778 -0.209,1.472 -0.292,2.083c-0.083,0.611 -0.125,1.222 -0.125,1.834c0,3.666 0.847,6.625 2.542,8.875c1.694,2.25 4.347,3.375 7.958,3.375Z" style="fill:#fff;fill-rule:nonzero;stroke:#fff;stroke-width:4.17px;stroke-miterlimit:5;"/></g><g transform="matrix(0.8093,0.587396,-0.587396,0.8093,1245.48,-205.375)"><path d="M961.959,1816.49c-5.334,-0 -9.417,-1.542 -12.25,-4.625c-2.834,-3.084 -4.25,-7.709 -4.25,-13.875c-0,-3.778 0.555,-7.278 1.666,-10.5c1.111,-3.222 2.681,-6.028 4.709,-8.417c2.027,-2.389 4.444,-4.25 7.25,-5.583c2.805,-1.334 5.902,-2 9.291,-2c4.222,-0 7.625,0.958 10.209,2.875c2.583,1.916 3.875,4.653 3.875,8.208c-0,1.445 -0.348,2.972 -1.042,4.583c-0.695,1.612 -2.153,3.112 -4.375,4.5c-2.222,1.389 -5.458,2.584 -9.708,3.584c-4.25,1 -9.903,1.583 -16.959,1.75c-0.055,0.444 -0.083,0.861 -0.083,1.25l-0,0.75c-0,1.833 0.18,3.555 0.542,5.166c0.361,1.612 1,3.042 1.916,4.292c0.917,1.25 2.153,2.236 3.709,2.958c1.555,0.723 3.527,1.084 5.916,1.084c3.334,-0 6.167,-0.861 8.5,-2.584c2.334,-1.722 4.584,-4.361 6.75,-7.916l3.417,2.083c-2.389,4.167 -5.083,7.278 -8.083,9.333c-3,2.056 -6.667,3.084 -11,3.084Zm5.916,-41.084c-4.389,0 -8.111,1.431 -11.166,4.292c-3.056,2.861 -4.973,6.986 -5.75,12.375l-0.25,1.5c5.777,-0.167 10.43,-0.583 13.958,-1.25c3.528,-0.667 6.264,-1.514 8.208,-2.542c1.945,-1.027 3.236,-2.152 3.875,-3.375c0.639,-1.222 0.959,-2.444 0.959,-3.666c-0,-2.056 -0.75,-3.792 -2.25,-5.209c-1.5,-1.416 -4.028,-2.125 -7.584,-2.125Z" style="fill:#fff;fill-rule:nonzero;stroke:#fff;stroke-width:4.17px;stroke-miterlimit:5;"/></g><g transform="matrix(0.873793,0.486298,-0.486298,0.873793,1020.78,-243.51)"><path d="M1002.45,1845.87c-5.333,0 -9.416,-1.542 -12.25,-4.625c-2.833,-3.083 -4.25,-7.708 -4.25,-13.875c0,-3.778 0.556,-7.278 1.667,-10.5c1.111,-3.222 2.68,-6.028 4.708,-8.417c2.028,-2.388 4.445,-4.25 7.25,-5.583c2.806,-1.333 5.903,-2 9.292,-2c4.222,0 7.625,0.958 10.208,2.875c2.584,1.917 3.875,4.653 3.875,8.208c0,1.445 -0.347,2.973 -1.041,4.584c-0.695,1.611 -2.153,3.111 -4.375,4.5c-2.223,1.389 -5.459,2.583 -9.709,3.583c-4.25,1 -9.903,1.583 -16.958,1.75c-0.056,0.445 -0.083,0.861 -0.083,1.25l-0,0.75c-0,1.833 0.18,3.556 0.541,5.167c0.361,1.611 1,3.041 1.917,4.291c0.917,1.25 2.153,2.237 3.708,2.959c1.556,0.722 3.528,1.083 5.917,1.083c3.333,0 6.167,-0.861 8.5,-2.583c2.333,-1.722 4.583,-4.361 6.75,-7.917l3.417,2.083c-2.389,4.167 -5.084,7.278 -8.084,9.334c-3,2.055 -6.666,3.083 -11,3.083Zm5.917,-41.083c-4.389,-0 -8.111,1.43 -11.167,4.291c-3.055,2.862 -4.972,6.987 -5.75,12.375l-0.25,1.5c5.778,-0.166 10.431,-0.583 13.959,-1.25c3.527,-0.666 6.263,-1.513 8.208,-2.541c1.944,-1.028 3.236,-2.153 3.875,-3.375c0.639,-1.222 0.958,-2.445 0.958,-3.667c0,-2.055 -0.75,-3.792 -2.25,-5.208c-1.5,-1.417 -4.028,-2.125 -7.583,-2.125Z" style="fill:#fff;fill-rule:nonzero;stroke:#fff;stroke-width:4.17px;stroke-miterlimit:5;"/></g><g transform="matrix(0.927586,0.373609,-0.373609,0.927586,772.489,-246.936)"><path d="M1039.09,1807.64l4.667,0l-4.75,28.584l0.333,-0c1.722,-3.5 3.847,-6.195 6.375,-8.084c2.528,-1.889 5.542,-2.833 9.042,-2.833c3.667,0 6.472,0.944 8.417,2.833c1.944,1.889 2.916,4.361 2.916,7.417c0,1.333 -0.25,2.722 -0.75,4.167c-0.5,1.444 -1.43,2.875 -2.791,4.291c-1.362,1.417 -3.264,2.75 -5.709,4c-2.444,1.25 -5.583,2.32 -9.416,3.209l7.583,14.833l0.833,0.083l12.5,-11.416l2.584,2.666l-8.167,7.917c-1.833,1.778 -3.306,3.056 -4.417,3.833c-1.111,0.778 -2.25,1.167 -3.416,1.167c-1.056,0 -1.945,-0.306 -2.667,-0.917c-0.722,-0.611 -1.417,-1.639 -2.083,-3.083l-8.167,-16.083c3.722,-0.889 6.819,-1.861 9.292,-2.917c2.472,-1.056 4.458,-2.181 5.958,-3.375c1.5,-1.194 2.555,-2.431 3.167,-3.708c0.611,-1.278 0.916,-2.611 0.916,-4c0,-2.111 -0.653,-3.792 -1.958,-5.042c-1.306,-1.25 -3.347,-1.875 -6.125,-1.875c-2.111,0 -3.986,0.403 -5.625,1.208c-1.639,0.806 -3.097,1.903 -4.375,3.292c-3.111,3.167 -5,6.778 -5.667,10.833l-4.083,24.667l-4.667,0l10.25,-61.667Z" style="fill:#fff;fill-rule:nonzero;stroke:#fff;stroke-width:4.17px;stroke-miterlimit:5;"/></g><g transform="matrix(0.965396,0.26079,-0.26079,0.965396,529.433,-213.64)"><path d="M1083.41,1865.25l0.834,-4.833l23.083,-0l-0.833,4.833l-23.084,-0Z" style="fill:#fff;fill-rule:nonzero;stroke:#fff;stroke-width:4.17px;stroke-miterlimit:5;"/></g><g transform="matrix(0.991071,0.133338,-0.133338,0.991071,263.529,-132.092)"><path d="M1134,1901.53l6.584,-39l-13.167,0l0.667,-4l17.75,0l-1.667,9.834l0.417,-0c0.722,-1.5 1.541,-2.848 2.458,-4.042c0.917,-1.195 1.972,-2.222 3.167,-3.083c1.194,-0.862 2.555,-1.528 4.083,-2c1.528,-0.473 3.292,-0.709 5.292,-0.709l7.833,0l-0.75,4.584l-8.333,-0c-4.222,-0 -7.584,1.222 -10.084,3.666c-0.944,0.778 -1.972,1.959 -3.083,3.542c-1.111,1.583 -1.861,3.542 -2.25,5.875l-4.25,25.333l-4.667,0Z" style="fill:#fff;fill-rule:nonzero;stroke:#fff;stroke-width:4.17px;stroke-miterlimit:5;"/></g><g transform="matrix(0.999688,0.0249765,-0.0249765,0.999688,48.0301,-28.5655)"><path d="M1200.37,1908.43l1.666,-9.916l-0.25,-0c-1.666,3.277 -3.68,5.916 -6.041,7.916c-2.361,2 -5.431,3 -9.209,3c-4.5,0 -7.93,-1.458 -10.291,-4.375c-2.361,-2.916 -3.542,-6.986 -3.542,-12.208c0,-3.389 0.403,-6.764 1.208,-10.125c0.806,-3.361 2.042,-6.403 3.709,-9.125c1.666,-2.722 3.764,-4.931 6.291,-6.625c2.528,-1.695 5.542,-2.542 9.042,-2.542c3.444,0 6.264,0.75 8.458,2.25c2.195,1.5 3.736,3.584 4.625,6.25l0.25,0l1.25,-7.5l4.667,0l-7.167,43l-4.666,0Zm-12.5,-3.166c1.777,-0 3.5,-0.334 5.166,-1c1.667,-0.667 3.223,-1.723 4.667,-3.167c1.278,-1.333 2.458,-2.931 3.542,-4.792c1.083,-1.861 1.819,-3.958 2.208,-6.291l1.833,-10.75c0.223,-1.445 0.153,-2.82 -0.208,-4.125c-0.361,-1.306 -1.014,-2.445 -1.958,-3.417c-0.945,-0.972 -2.181,-1.736 -3.709,-2.292c-1.527,-0.555 -3.291,-0.833 -5.291,-0.833c-2.167,-0 -4.125,0.389 -5.875,1.167c-1.75,0.777 -3.278,1.847 -4.584,3.208c-1.305,1.361 -2.375,2.986 -3.208,4.875c-0.833,1.889 -1.444,3.944 -1.833,6.167l-0.917,5.25c-0.111,0.777 -0.194,1.486 -0.25,2.125c-0.056,0.638 -0.083,1.263 -0.083,1.875c-0,3.5 0.847,6.375 2.541,8.625c1.695,2.25 4.348,3.375 7.959,3.375Z" style="fill:#fff;fill-rule:nonzero;stroke:#fff;stroke-width:4.17px;stroke-miterlimit:5;"/></g><g transform="matrix(0.995561,-0.0941223,0.0941223,0.995561,-174.339,123.077)"><path d="M1233.14,1848.02l4.666,-0l-4.75,28.583l0.25,0c0.834,-1.611 1.737,-3.083 2.709,-4.416c0.972,-1.334 2.069,-2.486 3.291,-3.459c1.223,-0.972 2.598,-1.722 4.125,-2.25c1.528,-0.527 3.237,-0.791 5.125,-0.791c4.5,-0 7.931,1.458 10.292,4.375c2.361,2.916 3.542,6.986 3.542,12.208c-0,3.389 -0.403,6.778 -1.209,10.167c-0.805,3.389 -2.041,6.43 -3.708,9.125c-1.667,2.694 -3.764,4.889 -6.292,6.583c-2.527,1.694 -5.541,2.542 -9.041,2.542c-3.445,-0 -6.264,-0.75 -8.459,-2.25c-2.194,-1.5 -3.736,-3.584 -4.625,-6.25l-0.25,-0l-1.25,7.5l-4.666,-0l10.25,-61.667Zm7.833,58.5c2.167,-0 4.125,-0.389 5.875,-1.167c1.75,-0.777 3.264,-1.847 4.542,-3.208c1.278,-1.361 2.347,-2.986 3.208,-4.875c0.861,-1.889 1.486,-3.944 1.875,-6.167l0.917,-5.25c0.111,-0.777 0.194,-1.486 0.25,-2.125c0.055,-0.639 0.083,-1.264 0.083,-1.875c0,-3.5 -0.847,-6.375 -2.542,-8.625c-1.694,-2.25 -4.347,-3.375 -7.958,-3.375c-1.778,0 -3.5,0.334 -5.167,1c-1.666,0.667 -3.222,1.723 -4.666,3.167c-1.278,1.333 -2.459,2.931 -3.542,4.792c-1.083,1.861 -1.819,3.958 -2.208,6.291l-1.834,10.75c-0.277,1.445 -0.222,2.82 0.167,4.125c0.389,1.306 1.056,2.445 2,3.417c0.945,0.972 2.181,1.736 3.708,2.292c1.528,0.555 3.292,0.833 5.292,0.833Z" style="fill:#fff;fill-rule:nonzero;stroke:#fff;stroke-width:4.17px;stroke-miterlimit:5;"/></g><g transform="matrix(0.976965,-0.213397,0.213397,0.976965,-377.321,314.353)"><path d="M1283.04,1843.31l4.666,0l-4.75,28.584l0.25,-0c0.834,-1.612 1.736,-3.084 2.709,-4.417c0.972,-1.333 2.069,-2.486 3.291,-3.458c1.223,-0.973 2.598,-1.723 4.125,-2.25c1.528,-0.528 3.236,-0.792 5.125,-0.792c4.5,-0 7.931,1.458 10.292,4.375c2.361,2.917 3.542,6.986 3.542,12.208c-0,3.389 -0.403,6.778 -1.209,10.167c-0.805,3.389 -2.041,6.43 -3.708,9.125c-1.667,2.694 -3.764,4.889 -6.292,6.583c-2.527,1.695 -5.541,2.542 -9.041,2.542c-3.445,-0 -6.264,-0.75 -8.459,-2.25c-2.194,-1.5 -3.736,-3.583 -4.625,-6.25l-0.25,-0l-1.25,7.5l-4.666,-0l10.25,-61.667Zm7.833,58.5c2.167,0 4.125,-0.389 5.875,-1.166c1.75,-0.778 3.264,-1.848 4.542,-3.209c1.277,-1.361 2.347,-2.986 3.208,-4.875c0.861,-1.889 1.486,-3.944 1.875,-6.166l0.917,-5.25c0.111,-0.778 0.194,-1.487 0.25,-2.125c0.055,-0.639 0.083,-1.264 0.083,-1.875c0,-3.5 -0.847,-6.375 -2.542,-8.625c-1.694,-2.25 -4.347,-3.375 -7.958,-3.375c-1.778,-0 -3.5,0.333 -5.167,1c-1.666,0.666 -3.222,1.722 -4.666,3.166c-1.278,1.334 -2.459,2.931 -3.542,4.792c-1.083,1.861 -1.819,3.958 -2.208,6.292l-1.834,10.75c-0.277,1.444 -0.222,2.819 0.167,4.125c0.389,1.305 1.056,2.444 2,3.416c0.944,0.972 2.181,1.736 3.708,2.292c1.528,0.555 3.292,0.833 5.292,0.833Z" style="fill:#fff;fill-rule:nonzero;stroke:#fff;stroke-width:4.17px;stroke-miterlimit:5;"/></g><g transform="matrix(0.945366,-0.326011,0.326011,0.945366,-545.613,532.629)"><path d="M1320.09,1894.2l0.75,-4.333l17.25,0l8.417,-50.167l-0.5,0l-18.334,14.25l-2.416,-3.25l18.75,-14.666l8,-0l-9,53.833l16.25,0l-0.75,4.333l-38.417,0Z" style="fill:#fff;fill-rule:nonzero;stroke:#fff;stroke-width:4.17px;stroke-miterlimit:5;"/></g><g transform="matrix(0.896363,-0.443322,0.443322,0.896363,-691.161,799.143)"><path d="M1382.72,1878.83c-2.889,-0 -4.333,-1.444 -4.333,-4.333c-0,-0.778 0.083,-1.834 0.25,-3.167l5.583,-32.5l-14.083,-0l0.667,-4l10.916,-0c1.167,-0 2.056,-0.25 2.667,-0.75c0.611,-0.5 1.028,-1.361 1.25,-2.583l2,-11.834l4.417,0l-2.5,15.167l19.416,-0l-0.666,4l-19.417,-0l-5.917,35.165l1.167,0.668l20.583,-13.11l2.334,2.944l-14.084,9.25c-2.666,1.833 -4.736,3.139 -6.208,3.916c-1.472,0.778 -2.82,1.167 -4.042,1.167Z" style="fill:#fff;fill-rule:nonzero;stroke:#fff;stroke-width:4.17px;stroke-miterlimit:5;"/></g><g transform="matrix(0.147665,-0.989037,0.989037,0.147665,-191.629,2940.53)"><path d="M1626.1,1519.78l4.666,-0l-4.75,28.583l0.334,0c1.722,-3.5 3.847,-6.194 6.375,-8.083c2.527,-1.889 5.541,-2.834 9.041,-2.834c3.667,0 6.473,0.945 8.417,2.834c1.944,1.889 2.917,4.361 2.917,7.416c-0,1.334 -0.25,2.723 -0.75,4.167c-0.5,1.445 -1.431,2.875 -2.792,4.292c-1.361,1.416 -3.264,2.75 -5.708,4c-2.445,1.25 -5.584,2.319 -9.417,3.208l7.583,14.833l0.834,0.084l12.5,-11.417l2.583,2.667l-8.167,7.916c-1.833,1.778 -3.305,3.056 -4.416,3.834c-1.111,0.778 -2.25,1.166 -3.417,1.166c-1.056,0 -1.944,-0.305 -2.667,-0.916c-0.722,-0.611 -1.416,-1.639 -2.083,-3.084l-8.167,-16.083c3.723,-0.889 6.82,-1.861 9.292,-2.917c2.472,-1.055 4.458,-2.18 5.958,-3.375c1.5,-1.194 2.556,-2.43 3.167,-3.708c0.611,-1.278 0.917,-2.611 0.917,-4c-0,-2.111 -0.653,-3.792 -1.959,-5.042c-1.305,-1.25 -3.347,-1.875 -6.125,-1.875c-2.111,0 -3.986,0.403 -5.625,1.209c-1.639,0.805 -3.097,1.903 -4.375,3.291c-3.111,3.167 -5,6.778 -5.666,10.834l-4.084,24.666l-4.666,0l10.25,-61.666Z" style="fill:#fff;fill-rule:nonzero;stroke:#fff;stroke-width:4.17px;stroke-miterlimit:5;"/></g><g transform="matrix(0.0324808,-0.999472,0.999472,0.0324808,34.0999,3099.02)"><path d="M1640.65,1532.9c-5.333,-0 -9.416,-1.542 -12.25,-4.625c-2.833,-3.084 -4.25,-7.709 -4.25,-13.875c0,-3.778 0.556,-7.278 1.667,-10.5c1.111,-3.223 2.68,-6.028 4.708,-8.417c2.028,-2.389 4.445,-4.25 7.25,-5.583c2.806,-1.334 5.903,-2 9.292,-2c4.222,-0 7.625,0.958 10.208,2.875c2.584,1.916 3.875,4.652 3.875,8.208c0,1.444 -0.347,2.972 -1.041,4.583c-0.695,1.611 -2.153,3.111 -4.375,4.5c-2.223,1.389 -5.459,2.584 -9.709,3.584c-4.25,1 -9.903,1.583 -16.958,1.75c-0.056,0.444 -0.083,0.861 -0.083,1.25l-0,0.75c-0,1.833 0.18,3.555 0.541,5.166c0.361,1.611 1,3.042 1.917,4.292c0.917,1.25 2.153,2.236 3.708,2.958c1.556,0.723 3.528,1.084 5.917,1.084c3.333,-0 6.167,-0.861 8.5,-2.584c2.333,-1.722 4.583,-4.361 6.75,-7.916l3.417,2.083c-2.389,4.167 -5.084,7.278 -8.084,9.333c-3,2.056 -6.666,3.084 -11,3.084Zm5.917,-41.084c-4.389,0 -8.111,1.431 -11.167,4.292c-3.055,2.861 -4.972,6.986 -5.75,12.375l-0.25,1.5c5.778,-0.167 10.431,-0.583 13.959,-1.25c3.527,-0.667 6.263,-1.514 8.208,-2.542c1.944,-1.027 3.236,-2.152 3.875,-3.375c0.639,-1.222 0.958,-2.444 0.958,-3.666c0,-2.056 -0.75,-3.792 -2.25,-5.209c-1.5,-1.416 -4.028,-2.125 -7.583,-2.125Z" style="fill:#fff;fill-rule:nonzero;stroke:#fff;stroke-width:4.17px;stroke-miterlimit:5;"/></g><g transform="matrix(-0.0822481,-0.996612,0.996612,-0.0822481,275.531,3217.61)"><path d="M1636.18,1499.61c-3.333,-0 -6.18,-0.5 -8.541,-1.5c-2.361,-1 -4.292,-2.417 -5.792,-4.25l3.333,-3.167c1.112,1.5 2.584,2.667 4.417,3.5c1.833,0.834 4.139,1.25 6.917,1.25c4.166,0 7.541,-1.069 10.125,-3.208c2.583,-2.139 4.264,-5.681 5.041,-10.625l1.75,-10.333l-0.25,-0c-1.611,3.333 -3.583,5.986 -5.916,7.958c-2.334,1.972 -5.278,2.958 -8.834,2.958c-3.666,0 -6.513,-1.069 -8.541,-3.208c-2.028,-2.139 -3.042,-5.125 -3.042,-8.958c0,-0.778 0.042,-1.57 0.125,-2.375c0.083,-0.806 0.181,-1.709 0.292,-2.709l4.333,-26l4.667,0l-4.25,25.584c-0.167,0.889 -0.278,1.722 -0.334,2.5c-0.055,0.777 -0.083,1.555 -0.083,2.333c0,2.722 0.695,4.847 2.083,6.375c1.389,1.528 3.445,2.292 6.167,2.292c3.945,-0 7.25,-1.639 9.917,-4.917c0.333,-0.389 0.736,-0.903 1.208,-1.542c0.472,-0.639 0.958,-1.402 1.458,-2.291c0.5,-0.889 0.959,-1.861 1.375,-2.917c0.417,-1.056 0.737,-2.194 0.959,-3.417l4,-24l4.666,0l-7.25,43.584c-1,6 -3.263,10.347 -6.791,13.041c-3.528,2.695 -7.931,4.042 -13.209,4.042Z" style="fill:#fff;fill-rule:nonzero;stroke:#fff;stroke-width:4.17px;stroke-miterlimit:5;"/></g><g transform="matrix(-0.205599,-0.978636,0.978636,-0.205599,545.717,3306.92)"><path d="M1630.63,1370.3l4.666,0l-4.75,28.584l0.25,-0c0.834,-1.612 1.736,-3.084 2.709,-4.417c0.972,-1.333 2.069,-2.486 3.291,-3.458c1.223,-0.973 2.598,-1.723 4.125,-2.25c1.528,-0.528 3.236,-0.792 5.125,-0.792c4.5,-0 7.931,1.458 10.292,4.375c2.361,2.917 3.542,6.986 3.542,12.208c-0,3.389 -0.403,6.778 -1.209,10.167c-0.805,3.389 -2.041,6.43 -3.708,9.125c-1.667,2.694 -3.764,4.889 -6.292,6.583c-2.527,1.695 -5.541,2.542 -9.041,2.542c-3.445,-0 -6.264,-0.75 -8.459,-2.25c-2.194,-1.5 -3.736,-3.583 -4.625,-6.25l-0.25,-0l-1.25,7.5l-4.666,-0l10.25,-61.667Zm7.833,58.5c2.167,0 4.125,-0.389 5.875,-1.166c1.75,-0.778 3.264,-1.848 4.542,-3.209c1.277,-1.361 2.347,-2.986 3.208,-4.875c0.861,-1.889 1.486,-3.944 1.875,-6.166l0.917,-5.25c0.111,-0.778 0.194,-1.487 0.25,-2.125c0.055,-0.639 0.083,-1.264 0.083,-1.875c-0,-3.5 -0.847,-6.375 -2.542,-8.625c-1.694,-2.25 -4.347,-3.375 -7.958,-3.375c-1.778,-0 -3.5,0.333 -5.167,1c-1.666,0.666 -3.222,1.722 -4.666,3.166c-1.278,1.334 -2.459,2.931 -3.542,4.792c-1.083,1.861 -1.819,3.958 -2.208,6.292l-1.834,10.75c-0.277,1.444 -0.222,2.819 0.167,4.125c0.389,1.305 1.056,2.444 2,3.416c0.944,0.972 2.181,1.736 3.708,2.292c1.528,0.555 3.292,0.833 5.292,0.833Z" style="fill:#fff;fill-rule:nonzero;stroke:#fff;stroke-width:4.17px;stroke-miterlimit:5;"/></g><g transform="matrix(-0.322148,-0.946689,0.946689,-0.322148,812.466,3347.72)"><path d="M1626.84,1383.99c-2.666,-0 -5.014,-0.431 -7.041,-1.292c-2.028,-0.861 -3.709,-2.055 -5.042,-3.583c-1.333,-1.528 -2.347,-3.361 -3.042,-5.5c-0.694,-2.139 -1.041,-4.458 -1.041,-6.958c-0,-4.278 0.555,-8.125 1.666,-11.542c1.111,-3.417 2.639,-6.32 4.584,-8.708c1.944,-2.389 4.264,-4.223 6.958,-5.5c2.694,-1.278 5.625,-1.917 8.792,-1.917c2.666,-0 5.014,0.43 7.041,1.292c2.028,0.861 3.709,2.055 5.042,3.583c1.333,1.528 2.347,3.361 3.042,5.5c0.694,2.139 1.041,4.458 1.041,6.958c0,4.278 -0.555,8.125 -1.666,11.542c-1.111,3.417 -2.639,6.319 -4.584,8.708c-1.944,2.389 -4.264,4.222 -6.958,5.5c-2.694,1.278 -5.625,1.917 -8.792,1.917Zm0.334,-4.167c4.389,0 7.93,-1.382 10.625,-4.148c2.694,-2.765 4.43,-6.581 5.208,-11.448l0.75,-4.645c0.167,-0.94 0.278,-1.714 0.333,-2.323c0.056,-0.608 0.084,-1.272 0.084,-1.991c-0,-3.815 -1,-6.788 -3,-8.917c-2,-2.13 -4.945,-3.194 -8.834,-3.194c-4.389,-0 -7.93,1.382 -10.625,4.147c-2.694,2.765 -4.43,6.582 -5.208,11.449l-0.75,4.644c-0.167,0.94 -0.278,1.715 -0.333,2.323c-0.056,0.609 -0.084,1.272 -0.084,1.991c0,3.816 1,6.789 3,8.918c2,2.129 4.945,3.194 8.834,3.194Z" style="fill:#fff;fill-rule:nonzero;stroke:#fff;stroke-width:4.17px;stroke-miterlimit:5;"/></g><g transform="matrix(-0.433834,-0.900993,0.900993,-0.433834,1074.45,3346.37)"><path d="M1621.45,1335.6l1.667,-9.917l-0.25,-0c-1.667,3.278 -3.68,5.917 -6.042,7.917c-2.361,2 -5.43,3 -9.208,3c-4.5,-0 -7.93,-1.459 -10.292,-4.375c-2.361,-2.917 -3.541,-6.987 -3.541,-12.209c-0,-3.389 0.403,-6.764 1.208,-10.125c0.806,-3.361 2.042,-6.403 3.708,-9.125c1.667,-2.722 3.764,-4.93 6.292,-6.625c2.528,-1.694 5.542,-2.541 9.042,-2.541c3.444,-0 6.264,0.75 8.458,2.25c2.195,1.5 3.736,3.583 4.625,6.25l0.25,-0l1.25,-7.5l4.667,-0l-7.167,43l-4.667,-0Zm-12.5,-3.167c1.778,-0 3.5,-0.333 5.167,-1c1.667,-0.667 3.222,-1.722 4.667,-3.167c1.278,-1.333 2.458,-2.93 3.541,-4.791c1.084,-1.862 1.82,-3.959 2.209,-6.292l1.833,-10.75c0.222,-1.445 0.153,-2.82 -0.208,-4.125c-0.361,-1.306 -1.014,-2.445 -1.959,-3.417c-0.944,-0.972 -2.18,-1.736 -3.708,-2.291c-1.528,-0.556 -3.292,-0.834 -5.292,-0.834c-2.166,0 -4.125,0.389 -5.875,1.167c-1.75,0.778 -3.277,1.847 -4.583,3.208c-1.305,1.361 -2.375,2.986 -3.208,4.875c-0.834,1.889 -1.445,3.945 -1.834,6.167l-0.916,5.25c-0.111,0.778 -0.195,1.486 -0.25,2.125c-0.056,0.639 -0.084,1.264 -0.084,1.875c0,3.5 0.848,6.375 2.542,8.625c1.695,2.25 4.347,3.375 7.958,3.375Z" style="fill:#fff;fill-rule:nonzero;stroke:#fff;stroke-width:4.17px;stroke-miterlimit:5;"/></g><g transform="matrix(-0.547929,-0.836525,0.836525,-0.547929,1346.4,3308.31)"><path d="M1583.13,1290.34l6.583,-39l-13.167,-0l0.667,-4l17.75,-0l-1.667,9.833l0.417,0c0.722,-1.5 1.542,-2.847 2.458,-4.042c0.917,-1.194 1.973,-2.222 3.167,-3.083c1.194,-0.861 2.556,-1.528 4.083,-2c1.528,-0.472 3.292,-0.708 5.292,-0.708l7.833,-0l-0.75,4.583l-8.333,0c-4.222,0 -7.583,1.222 -10.083,3.667c-0.945,0.777 -1.973,1.958 -3.084,3.541c-1.111,1.584 -1.861,3.542 -2.25,5.875l-4.25,25.334l-4.666,-0Z" style="fill:#fff;fill-rule:nonzero;stroke:#fff;stroke-width:4.17px;stroke-miterlimit:5;"/></g><g transform="matrix(-0.63845,-0.769664,0.769664,-0.63845,1562.41,3230.51)"><path d="M1574.47,1238.37l-0.25,-0c-1.666,3.278 -3.68,5.917 -6.041,7.917c-2.362,2 -5.431,3 -9.209,3c-4.5,-0 -7.93,-1.459 -10.291,-4.375c-2.362,-2.917 -3.542,-6.987 -3.542,-12.209c-0,-3.389 0.403,-6.764 1.208,-10.125c0.806,-3.361 2.042,-6.403 3.709,-9.125c1.666,-2.722 3.763,-4.93 6.291,-6.625c2.528,-1.694 5.542,-2.541 9.042,-2.541c3.444,-0 6.264,0.75 8.458,2.25c2.195,1.5 3.736,3.583 4.625,6.25l0.25,-0l4.334,-26.167l4.666,-0l-10.25,61.667l-4.666,-0l1.666,-9.917Zm-14.166,6.75c1.777,-0 3.5,-0.333 5.166,-1c1.667,-0.667 3.222,-1.722 4.667,-3.167c1.278,-1.333 2.458,-2.93 3.542,-4.791c1.083,-1.862 1.819,-3.959 2.208,-6.292l1.833,-10.75c0.222,-1.445 0.153,-2.82 -0.208,-4.125c-0.361,-1.306 -1.014,-2.445 -1.958,-3.417c-0.945,-0.972 -2.181,-1.736 -3.709,-2.291c-1.528,-0.556 -3.291,-0.834 -5.291,-0.834c-2.167,0 -4.125,0.375 -5.875,1.125c-1.75,0.75 -3.278,1.82 -4.584,3.209c-1.305,1.388 -2.375,3.027 -3.208,4.916c-0.833,1.889 -1.445,3.945 -1.833,6.167l-0.917,5.25c-0.111,0.778 -0.195,1.486 -0.25,2.125c-0.056,0.639 -0.083,1.264 -0.083,1.875c-0,3.5 0.847,6.375 2.541,8.625c1.695,2.25 4.347,3.375 7.959,3.375Z" style="fill:#fff;fill-rule:nonzero;stroke:#fff;stroke-width:4.17px;stroke-miterlimit:5;"/></g><g transform="matrix(-0.722081,-0.691808,0.691808,-0.722081,1760.07,3126.52)"><path d="M1530.96,1210.73c-8.444,-0 -14.583,-2.75 -18.416,-8.25l3.5,-2.75c1.722,2.389 3.805,4.153 6.25,5.292c2.444,1.139 5.444,1.708 9,1.708c4.222,-0 7.569,-0.833 10.041,-2.5c2.473,-1.667 3.709,-4.083 3.709,-7.25c-0,-2.333 -0.722,-3.972 -2.167,-4.917c-1.444,-0.944 -3.361,-1.555 -5.75,-1.833l-6.333,-0.75c-1.611,-0.222 -3.167,-0.542 -4.667,-0.958c-1.5,-0.417 -2.819,-1.028 -3.958,-1.834c-1.139,-0.805 -2.042,-1.833 -2.709,-3.083c-0.666,-1.25 -1,-2.819 -1,-4.708c0,-2.223 0.459,-4.167 1.375,-5.834c0.917,-1.666 2.181,-3.041 3.792,-4.125c1.611,-1.083 3.472,-1.889 5.583,-2.416c2.112,-0.528 4.389,-0.792 6.834,-0.792c4.055,-0 7.389,0.625 10,1.875c2.611,1.25 4.666,2.847 6.166,4.792l-3.333,2.916c-0.444,-0.666 -1.028,-1.333 -1.75,-2c-0.722,-0.666 -1.625,-1.264 -2.708,-1.791c-1.084,-0.528 -2.347,-0.959 -3.792,-1.292c-1.444,-0.333 -3.139,-0.5 -5.083,-0.5c-4,-0 -7.084,0.764 -9.25,2.292c-2.167,1.527 -3.25,3.708 -3.25,6.541c-0,1.167 0.194,2.153 0.583,2.959c0.389,0.805 0.945,1.458 1.667,1.958c0.722,0.5 1.583,0.889 2.583,1.167c1,0.277 2.083,0.5 3.25,0.666l6.25,0.834c1.5,0.166 2.986,0.444 4.458,0.833c1.473,0.389 2.778,0.958 3.917,1.708c1.139,0.75 2.07,1.764 2.792,3.042c0.722,1.278 1.083,2.889 1.083,4.833c0,2.278 -0.458,4.292 -1.375,6.042c-0.917,1.75 -2.208,3.236 -3.875,4.458c-1.667,1.223 -3.639,2.139 -5.917,2.75c-2.277,0.611 -4.777,0.917 -7.5,0.917Z" style="fill:#fff;fill-rule:nonzero;stroke:#fff;stroke-width:4.17px;stroke-miterlimit:5;"/></g><g transform="matrix(-0.919805,-0.392375,0.392375,-0.919805,2226.02,2695.24)"><path d="M1390.44,1120.14l7.166,-43l4.334,0l-1.084,6.667l0.25,-0c1,-2.167 2.25,-3.986 3.75,-5.459c1.5,-1.472 3.5,-2.208 6,-2.208c2.389,0 4.153,0.736 5.292,2.208c1.139,1.473 1.625,3.431 1.458,5.875l0.25,0c1.056,-2.5 2.445,-4.472 4.167,-5.916c1.722,-1.445 3.833,-2.167 6.333,-2.167c2.334,0 4.139,0.736 5.417,2.208c1.278,1.473 1.917,3.459 1.917,5.959c-0,0.666 -0.042,1.444 -0.125,2.333c-0.084,0.889 -0.209,1.75 -0.375,2.583l-5.167,30.917l-4.333,0l5,-29.917c0.111,-0.889 0.222,-1.777 0.333,-2.666c0.111,-0.889 0.167,-1.667 0.167,-2.334c-0,-1.611 -0.362,-2.889 -1.084,-3.833c-0.722,-0.944 -1.861,-1.417 -3.416,-1.417c-1.278,0 -2.389,0.306 -3.334,0.917c-0.944,0.611 -1.861,1.472 -2.75,2.583c-0.889,1.111 -1.611,2.361 -2.166,3.75c-0.556,1.389 -0.973,2.806 -1.25,4.25l-4.75,28.667l-4.334,0l4.917,-29.667c0.167,-0.944 0.305,-1.833 0.417,-2.666c0.111,-0.834 0.166,-1.611 0.166,-2.334c0,-3.666 -1.472,-5.5 -4.416,-5.5c-1.334,0 -2.5,0.32 -3.5,0.959c-1,0.639 -1.889,1.486 -2.667,2.541c-0.778,1.111 -1.486,2.348 -2.125,3.709c-0.639,1.361 -1.097,2.791 -1.375,4.291l-4.75,28.667l-4.333,0Z" style="fill:#fff;fill-rule:nonzero;stroke:#fff;stroke-width:4.17px;stroke-miterlimit:5;"/></g><g transform="matrix(-0.960684,-0.277643,0.277643,-0.960684,2326.46,2530.51)"><path d="M1375.23,1100.53l1.667,-9.917l-0.25,0c-1.667,3.278 -3.681,5.917 -6.042,7.917c-2.361,2 -5.43,3 -9.208,3c-4.5,-0 -7.931,-1.458 -10.292,-4.375c-2.361,-2.917 -3.541,-6.986 -3.541,-12.208c-0,-3.389 0.402,-6.764 1.208,-10.125c0.806,-3.362 2.042,-6.403 3.708,-9.125c1.667,-2.723 3.764,-4.931 6.292,-6.625c2.528,-1.695 5.542,-2.542 9.042,-2.542c3.444,-0 6.264,0.75 8.458,2.25c2.194,1.5 3.736,3.583 4.625,6.25l0.25,-0l1.25,-7.5l4.667,-0l-7.167,43l-4.667,-0Zm-12.5,-3.167c1.778,0 3.5,-0.333 5.167,-1c1.667,-0.666 3.222,-1.722 4.667,-3.166c1.277,-1.334 2.458,-2.931 3.541,-4.792c1.084,-1.861 1.82,-3.958 2.209,-6.292l1.833,-10.75c0.222,-1.444 0.153,-2.819 -0.208,-4.125c-0.361,-1.305 -1.014,-2.444 -1.959,-3.416c-0.944,-0.973 -2.18,-1.737 -3.708,-2.292c-1.528,-0.556 -3.292,-0.833 -5.292,-0.833c-2.166,-0 -4.125,0.388 -5.875,1.166c-1.75,0.778 -3.277,1.847 -4.583,3.209c-1.306,1.361 -2.375,2.986 -3.208,4.875c-0.834,1.888 -1.445,3.944 -1.834,6.166l-0.916,5.25c-0.111,0.778 -0.195,1.486 -0.25,2.125c-0.056,0.639 -0.084,1.264 -0.084,1.875c0,3.5 0.848,6.375 2.542,8.625c1.694,2.25 4.347,3.375 7.958,3.375Z" style="fill:#fff;fill-rule:nonzero;stroke:#fff;stroke-width:4.17px;stroke-miterlimit:5;"/></g><g transform="matrix(-0.987767,-0.15594,0.15594,-0.987767,2403.42,2361.67)"><path d="M1328.85,1076.65l-0.25,-0c-1.666,3.277 -3.68,5.916 -6.041,7.916c-2.361,2 -5.431,3 -9.209,3c-4.5,0 -7.93,-1.458 -10.291,-4.375c-2.361,-2.916 -3.542,-6.986 -3.542,-12.208c0,-3.389 0.403,-6.764 1.208,-10.125c0.806,-3.361 2.042,-6.403 3.709,-9.125c1.666,-2.722 3.764,-4.931 6.291,-6.625c2.528,-1.694 5.542,-2.542 9.042,-2.542c3.445,0 6.264,0.75 8.458,2.25c2.195,1.5 3.737,3.584 4.625,6.25l0.25,0l4.334,-26.166l4.666,-0l-10.25,61.666l-4.666,0l1.666,-9.916Zm-14.166,6.75c1.778,-0 3.5,-0.334 5.166,-1c1.667,-0.667 3.223,-1.723 4.667,-3.167c1.278,-1.333 2.458,-2.931 3.542,-4.792c1.083,-1.861 1.819,-3.958 2.208,-6.291l1.833,-10.75c0.223,-1.445 0.153,-2.82 -0.208,-4.125c-0.361,-1.306 -1.014,-2.445 -1.958,-3.417c-0.945,-0.972 -2.181,-1.736 -3.709,-2.292c-1.527,-0.555 -3.291,-0.833 -5.291,-0.833c-2.167,-0 -4.125,0.375 -5.875,1.125c-1.75,0.75 -3.278,1.819 -4.584,3.208c-1.305,1.389 -2.375,3.028 -3.208,4.917c-0.833,1.889 -1.444,3.944 -1.833,6.167l-0.917,5.25c-0.111,0.777 -0.194,1.486 -0.25,2.125c-0.055,0.639 -0.083,1.264 -0.083,1.875c-0,3.5 0.847,6.375 2.541,8.625c1.695,2.25 4.348,3.375 7.959,3.375Z" style="fill:#fff;fill-rule:nonzero;stroke:#fff;stroke-width:4.17px;stroke-miterlimit:5;"/></g><g transform="matrix(-0.999183,-0.0404244,0.0404244,-0.999183,2445.29,2206.83)"><path d="M1267.87,1079.69c-5.333,-0 -9.417,-1.542 -12.25,-4.625c-2.833,-3.084 -4.25,-7.709 -4.25,-13.875c-0,-3.778 0.555,-7.278 1.667,-10.5c1.111,-3.223 2.68,-6.028 4.708,-8.417c2.028,-2.389 4.444,-4.25 7.25,-5.583c2.805,-1.334 5.903,-2 9.292,-2c4.222,-0 7.625,0.958 10.208,2.875c2.583,1.916 3.875,4.652 3.875,8.208c-0,1.444 -0.347,2.972 -1.042,4.583c-0.694,1.611 -2.153,3.111 -4.375,4.5c-2.222,1.389 -5.458,2.584 -9.708,3.584c-4.25,1 -9.903,1.583 -16.958,1.75c-0.056,0.444 -0.084,0.861 -0.084,1.25l0,0.75c0,1.833 0.181,3.555 0.542,5.166c0.361,1.611 1,3.042 1.917,4.292c0.916,1.25 2.152,2.236 3.708,2.958c1.555,0.722 3.528,1.084 5.917,1.084c3.333,-0 6.166,-0.862 8.5,-2.584c2.333,-1.722 4.583,-4.361 6.75,-7.916l3.416,2.083c-2.389,4.167 -5.083,7.278 -8.083,9.333c-3,2.056 -6.667,3.084 -11,3.084Zm5.917,-41.084c-4.389,0 -8.112,1.431 -11.167,4.292c-3.056,2.861 -4.972,6.986 -5.75,12.375l-0.25,1.5c5.778,-0.167 10.43,-0.583 13.958,-1.25c3.528,-0.667 6.264,-1.514 8.209,-2.542c1.944,-1.028 3.236,-2.153 3.875,-3.375c0.638,-1.222 0.958,-2.444 0.958,-3.666c-0,-2.056 -0.75,-3.792 -2.25,-5.209c-1.5,-1.416 -4.028,-2.125 -7.583,-2.125Z" style="fill:#fff;fill-rule:nonzero;stroke:#fff;stroke-width:4.17px;stroke-miterlimit:5;"/></g><g transform="matrix(-0.980188,0.198067,-0.198067,-0.980188,2481.24,1913.02)"><path d="M1160.53,1018.94l4.667,0l-4.75,28.584l0.25,-0c0.833,-1.611 1.736,-3.084 2.708,-4.417c0.972,-1.333 2.07,-2.486 3.292,-3.458c1.222,-0.972 2.597,-1.722 4.125,-2.25c1.528,-0.528 3.236,-0.792 5.125,-0.792c4.5,0 7.93,1.458 10.292,4.375c2.361,2.917 3.541,6.986 3.541,12.208c0,3.389 -0.403,6.778 -1.208,10.167c-0.806,3.389 -2.042,6.431 -3.708,9.125c-1.667,2.695 -3.764,4.889 -6.292,6.583c-2.528,1.695 -5.542,2.542 -9.042,2.542c-3.444,0 -6.264,-0.75 -8.458,-2.25c-2.195,-1.5 -3.736,-3.583 -4.625,-6.25l-0.25,0l-1.25,7.5l-4.667,0l10.25,-61.667Zm7.834,58.5c2.166,0 4.125,-0.388 5.875,-1.166c1.75,-0.778 3.263,-1.847 4.541,-3.209c1.278,-1.361 2.347,-2.986 3.209,-4.875c0.861,-1.888 1.486,-3.944 1.875,-6.166l0.916,-5.25c0.111,-0.778 0.195,-1.486 0.25,-2.125c0.056,-0.639 0.084,-1.264 0.084,-1.875c-0,-3.5 -0.848,-6.375 -2.542,-8.625c-1.695,-2.25 -4.347,-3.375 -7.958,-3.375c-1.778,-0 -3.5,0.333 -5.167,1c-1.667,0.666 -3.222,1.722 -4.667,3.166c-1.278,1.334 -2.458,2.931 -3.541,4.792c-1.084,1.861 -1.82,3.958 -2.209,6.292l-1.833,10.75c-0.278,1.444 -0.222,2.819 0.167,4.125c0.388,1.305 1.055,2.444 2,3.416c0.944,0.973 2.18,1.737 3.708,2.292c1.528,0.556 3.292,0.833 5.292,0.833Z" style="fill:#fff;fill-rule:nonzero;stroke:#fff;stroke-width:4.17px;stroke-miterlimit:5;"/></g><g transform="matrix(-0.950414,0.310989,-0.310989,-0.950414,2476.82,1786.24)"><path d="M1112.92,1108.25c-3.333,-0 -6.18,-0.5 -8.541,-1.5c-2.361,-1 -4.292,-2.417 -5.792,-4.25l3.333,-3.167c1.112,1.5 2.584,2.667 4.417,3.5c1.833,0.833 4.139,1.25 6.917,1.25c4.166,0 7.541,-1.069 10.125,-3.208c2.583,-2.139 4.264,-5.681 5.041,-10.625l1.75,-10.334l-0.25,0c-1.611,3.334 -3.583,5.987 -5.916,7.959c-2.334,1.972 -5.278,2.958 -8.834,2.958c-3.666,0 -6.513,-1.069 -8.541,-3.208c-2.028,-2.139 -3.042,-5.125 -3.042,-8.959c0,-0.777 0.042,-1.569 0.125,-2.375c0.083,-0.805 0.181,-1.708 0.292,-2.708l4.333,-26l4.667,0l-4.25,25.583c-0.167,0.889 -0.278,1.723 -0.334,2.5c-0.055,0.778 -0.083,1.556 -0.083,2.334c0,2.722 0.695,4.847 2.083,6.375c1.389,1.528 3.445,2.291 6.167,2.291c3.945,0 7.25,-1.638 9.917,-4.916c0.333,-0.389 0.736,-0.903 1.208,-1.542c0.472,-0.639 0.958,-1.403 1.458,-2.292c0.5,-0.888 0.959,-1.861 1.375,-2.916c0.417,-1.056 0.737,-2.195 0.959,-3.417l4,-24l4.666,0l-7.25,43.583c-1,6 -3.263,10.348 -6.791,13.042c-3.528,2.695 -7.931,4.042 -13.209,4.042Z" style="fill:#fff;fill-rule:nonzero;stroke:#fff;stroke-width:4.17px;stroke-miterlimit:5;"/></g><g transform="matrix(-0.840643,0.541589,-0.541589,-0.840643,2456.82,1531.9)"><path d="M1019.04,1127.39l6.583,-39l-13.167,0l0.667,-4l17.75,0l-1.667,9.834l0.417,-0c0.722,-1.5 1.542,-2.848 2.458,-4.042c0.917,-1.194 1.973,-2.222 3.167,-3.083c1.195,-0.861 2.556,-1.528 4.083,-2c1.528,-0.473 3.292,-0.709 5.292,-0.709l7.833,0l-0.75,4.584l-8.333,-0c-4.222,-0 -7.583,1.222 -10.083,3.666c-0.945,0.778 -1.972,1.959 -3.084,3.542c-1.111,1.583 -1.861,3.542 -2.25,5.875l-4.25,25.333l-4.666,0Z" style="fill:#fff;fill-rule:nonzero;stroke:#fff;stroke-width:4.17px;stroke-miterlimit:5;"/></g><g transform="matrix(-0.776536,0.630072,-0.630072,-0.776536,2434.1,1445.5)"><path d="M993.552,1154.39l1.667,-9.917l-0.25,-0c-1.667,3.278 -3.68,5.917 -6.042,7.917c-2.361,2 -5.43,3 -9.208,3c-4.5,-0 -7.93,-1.459 -10.292,-4.375c-2.361,-2.917 -3.541,-6.986 -3.541,-12.209c-0,-3.389 0.403,-6.764 1.208,-10.125c0.806,-3.361 2.042,-6.402 3.708,-9.125c1.667,-2.722 3.764,-4.93 6.292,-6.625c2.528,-1.694 5.542,-2.541 9.042,-2.541c3.444,-0 6.264,0.75 8.458,2.25c2.195,1.5 3.736,3.583 4.625,6.25l0.25,-0l1.25,-7.5l4.667,-0l-7.167,43l-4.667,-0Zm-12.5,-3.167c1.778,-0 3.5,-0.333 5.167,-1c1.667,-0.667 3.222,-1.722 4.667,-3.167c1.278,-1.333 2.458,-2.93 3.541,-4.791c1.084,-1.861 1.82,-3.959 2.209,-6.292l1.833,-10.75c0.222,-1.444 0.153,-2.819 -0.208,-4.125c-0.361,-1.306 -1.014,-2.444 -1.959,-3.417c-0.944,-0.972 -2.18,-1.736 -3.708,-2.291c-1.528,-0.556 -3.292,-0.834 -5.292,-0.834c-2.166,0 -4.125,0.389 -5.875,1.167c-1.75,0.778 -3.277,1.847 -4.583,3.208c-1.305,1.361 -2.375,2.986 -3.208,4.875c-0.834,1.889 -1.445,3.945 -1.834,6.167l-0.916,5.25c-0.111,0.778 -0.195,1.486 -0.25,2.125c-0.056,0.639 -0.084,1.264 -0.084,1.875c0,3.5 0.848,6.375 2.542,8.625c1.695,2.25 4.347,3.375 7.958,3.375Z" style="fill:#fff;fill-rule:nonzero;stroke:#fff;stroke-width:4.17px;stroke-miterlimit:5;"/></g><g transform="matrix(-0.695837,0.7182,-0.7182,-0.695837,2415.12,1348.92)"><path d="M937.504,1124.2l4.667,0l-4.75,28.584l0.25,-0c0.833,-1.611 1.736,-3.084 2.708,-4.417c0.973,-1.333 2.07,-2.486 3.292,-3.458c1.222,-0.973 2.597,-1.723 4.125,-2.25c1.528,-0.528 3.236,-0.792 5.125,-0.792c4.5,-0 7.931,1.458 10.292,4.375c2.361,2.917 3.541,6.986 3.541,12.208c0,3.389 -0.402,6.778 -1.208,10.167c-0.805,3.389 -2.042,6.431 -3.708,9.125c-1.667,2.694 -3.764,4.889 -6.292,6.583c-2.528,1.695 -5.542,2.542 -9.042,2.542c-3.444,-0 -6.263,-0.75 -8.458,-2.25c-2.194,-1.5 -3.736,-3.583 -4.625,-6.25l-0.25,-0l-1.25,7.5l-4.667,-0l10.25,-61.667Zm7.834,58.5c2.166,0 4.125,-0.389 5.875,-1.166c1.75,-0.778 3.264,-1.848 4.541,-3.209c1.278,-1.361 2.348,-2.986 3.209,-4.875c0.861,-1.889 1.486,-3.944 1.875,-6.166l0.916,-5.25c0.112,-0.778 0.195,-1.486 0.25,-2.125c0.056,-0.639 0.084,-1.264 0.084,-1.875c-0,-3.5 -0.847,-6.375 -2.542,-8.625c-1.694,-2.25 -4.347,-3.375 -7.958,-3.375c-1.778,-0 -3.5,0.333 -5.167,1c-1.667,0.666 -3.222,1.722 -4.667,3.166c-1.277,1.334 -2.458,2.931 -3.541,4.792c-1.084,1.861 -1.82,3.958 -2.209,6.292l-1.833,10.75c-0.278,1.444 -0.222,2.819 0.167,4.125c0.389,1.305 1.055,2.444 2,3.416c0.944,0.973 2.18,1.736 3.708,2.292c1.528,0.556 3.292,0.833 5.292,0.833Z" style="fill:#fff;fill-rule:nonzero;stroke:#fff;stroke-width:4.17px;stroke-miterlimit:5;"/></g><g transform="matrix(-0.60513,0.796126,-0.796126,-0.60513,2396.57,1255.1)"><path d="M902.608,1160.22l4.667,-0l-4.75,28.583l0.25,0c0.833,-1.611 1.736,-3.083 2.708,-4.416c0.972,-1.334 2.07,-2.487 3.292,-3.459c1.222,-0.972 2.597,-1.722 4.125,-2.25c1.528,-0.528 3.236,-0.791 5.125,-0.791c4.5,-0 7.93,1.458 10.291,4.375c2.362,2.916 3.542,6.986 3.542,12.208c0,3.389 -0.403,6.778 -1.208,10.167c-0.806,3.388 -2.042,6.43 -3.709,9.125c-1.666,2.694 -3.763,4.888 -6.291,6.583c-2.528,1.694 -5.542,2.542 -9.042,2.542c-3.444,-0 -6.264,-0.75 -8.458,-2.25c-2.195,-1.5 -3.736,-3.584 -4.625,-6.25l-0.25,-0l-1.25,7.5l-4.667,-0l10.25,-61.667Zm7.833,58.5c2.167,-0 4.125,-0.389 5.875,-1.167c1.75,-0.778 3.264,-1.847 4.542,-3.208c1.278,-1.361 2.347,-2.986 3.208,-4.875c0.862,-1.889 1.487,-3.945 1.875,-6.167l0.917,-5.25c0.111,-0.778 0.195,-1.486 0.25,-2.125c0.056,-0.639 0.083,-1.264 0.083,-1.875c0,-3.5 -0.847,-6.375 -2.541,-8.625c-1.695,-2.25 -4.347,-3.375 -7.959,-3.375c-1.777,0 -3.5,0.334 -5.166,1c-1.667,0.667 -3.222,1.722 -4.667,3.167c-1.278,1.333 -2.458,2.93 -3.542,4.792c-1.083,1.861 -1.819,3.958 -2.208,6.291l-1.833,10.75c-0.278,1.445 -0.222,2.82 0.166,4.125c0.389,1.306 1.056,2.445 2,3.417c0.945,0.972 2.181,1.736 3.709,2.292c1.528,0.555 3.291,0.833 5.291,0.833Z" style="fill:#fff;fill-rule:nonzero;stroke:#fff;stroke-width:4.17px;stroke-miterlimit:5;"/></g><g transform="matrix(-0.505057,0.863086,-0.863086,-0.505057,2378.38,1159.4)"><path d="M885.591,1207.15c-1.445,-0 -2.445,-0.278 -3,-0.834c-0.556,-0.555 -0.834,-1.166 -0.834,-1.833c0,-0.278 0.028,-0.597 0.084,-0.958c0.055,-0.362 0.111,-0.681 0.166,-0.959c0.167,-0.944 0.57,-1.708 1.209,-2.291c0.638,-0.584 1.652,-0.875 3.041,-0.875c1.445,-0 2.445,0.277 3,0.833c0.556,0.555 0.834,1.167 0.834,1.833c-0,0.278 -0.028,0.597 -0.084,0.959c-0.055,0.361 -0.111,0.68 -0.166,0.958c-0.167,0.944 -0.57,1.708 -1.209,2.292c-0.639,0.583 -1.653,0.875 -3.041,0.875Zm-7.75,55.5c-1.445,-0 -2.556,-0.389 -3.334,-1.167c-0.778,-0.778 -1.166,-1.778 -1.166,-3c-0,-0.389 0.041,-0.82 0.125,-1.292c0.083,-0.472 0.18,-1.097 0.291,-1.875l6.334,-32.666l-16.167,-0l0.667,-4l20.916,-0l-7.583,39.332l1.25,0.501l18.75,-14.447l2.5,2.947l-12.333,9.5c-1.445,1.111 -2.653,2.055 -3.625,2.833c-0.973,0.778 -1.848,1.417 -2.625,1.917c-0.778,0.5 -1.473,0.861 -2.084,1.083c-0.611,0.222 -1.25,0.334 -1.916,0.334Z" style="fill:#fff;fill-rule:nonzero;stroke:#fff;stroke-width:4.17px;stroke-miterlimit:5;"/></g><g transform="matrix(-0.396353,0.918098,-0.918098,-0.396353,2358.9,1058.78)"><path d="M850.459,1305.87c-2.889,-0 -4.333,-1.444 -4.333,-4.333c-0,-0.778 0.083,-1.834 0.25,-3.167l5.583,-32.5l-14.083,-0l0.666,-4l10.917,-0c1.167,-0 2.056,-0.25 2.667,-0.75c0.611,-0.5 1.027,-1.361 1.25,-2.583l2,-11.834l4.416,0l-2.5,15.167l19.417,-0l-0.667,4l-19.416,-0l-5.917,35.165l1.167,0.668l20.583,-13.11l2.333,2.944l-14.083,9.25c-2.667,1.833 -4.736,3.139 -6.208,3.916c-1.473,0.778 -2.82,1.167 -4.042,1.167Z" style="fill:#fff;fill-rule:nonzero;stroke:#fff;stroke-width:4.17px;stroke-miterlimit:5;"/></g></g></g><g id="レイヤー1"><path d="M80.327,70.06c-2.79,1.953 -12.399,9.017 -16.874,16.662c-1.661,2.838 -1.841,5.808 -1.577,9.123c0.319,4.002 1.35,8.603 -0.313,14.294c-0.614,2.099 -2.395,3.288 -4.613,4.994c-2.799,2.153 -6.302,4.821 -9.928,9.499c-2.338,3.015 -4.698,9.049 -5.552,15.06c-0.586,4.122 -0.453,8.221 0.719,11.362c0.934,2.502 5.386,11.273 11.208,17.198c4.351,4.427 9.503,7.14 14.491,5.716c3.506,-1.001 5.381,-2.17 6.94,-3.211c1.797,-1.2 3.048,-2.178 7.168,-2.158c4.311,0.022 7.976,1.63 11.304,3.806c3.614,2.364 6.842,5.393 10.003,8.043c4.79,4.015 9.518,7.102 14.841,6.851c9.499,-0.447 22.853,0.044 32.601,-7.121c12.576,-9.245 14.613,-11.002 19.574,-24.321c1.519,-4.078 2.029,-10.582 1.392,-17.745c-0.923,-10.37 -4.22,-22.118 -9.84,-29.704c-0.176,-1.41 -1.132,-9.514 -1.889,-25.231c-0.825,-17.152 4.868,-37.467 12.526,-52.507c1.522,-2.989 1.353,-5.125 0.605,-6.372c-0.85,-1.417 -2.71,-2.349 -5.584,-1.963c-2.517,0.337 -6.12,1.682 -10.301,3.969c-8.301,4.539 -19.082,12.816 -28.161,23.512l-0.078,-0.624c-0.044,-0.753 -0.455,-1.437 -1.1,-1.828c-0.645,-0.392 -1.442,-0.442 -2.13,-0.134c-1.462,0.654 -2.739,1.684 -3.948,2.989c0.09,-0.395 0.191,-0.781 0.308,-1.155c0.325,-1.041 -0.127,-2.166 -1.081,-2.694c-0.954,-0.527 -2.147,-0.312 -2.856,0.516l-0.403,0.451c1.076,-6.277 2.258,-12.358 1.821,-17.1c-0.492,-5.34 -2.795,-9.214 -8.418,-10.668c-3.112,-0.805 -6.117,-0.034 -8.944,2.002c-2.429,1.749 -4.748,4.49 -6.877,7.855c-8.268,13.071 -13.911,35.862 -15.034,40.634Zm88.694,-43.163c-0.105,0.416 -0.305,1.097 -0.606,1.689c-7.993,15.697 -13.883,36.911 -13.021,54.812c0.763,15.839 1.504,23.031 1.874,25.413c0.199,1.285 0.559,1.865 0.649,1.982c5.34,6.957 8.355,18.017 9.218,27.726c0.565,6.348 0.226,12.121 -1.12,15.734c-4.544,12.199 -6.473,13.757 -17.991,22.223c-8.979,6.6 -21.347,5.823 -30.097,6.235c-2.519,0.118 -4.817,-0.865 -7.087,-2.315c-2.609,-1.667 -5.156,-3.951 -7.831,-6.245c-5.921,-5.08 -12.445,-10.103 -20.99,-10.145c-4.741,-0.023 -6.719,0.959 -8.687,2.23c-1.542,0.995 -3.058,2.274 -6.705,3.315c-3.5,0.999 -6.9,-1.412 -9.953,-4.519c-5.28,-5.373 -9.334,-13.315 -10.181,-15.584c-0.939,-2.516 -0.945,-5.807 -0.475,-9.11c0.728,-5.13 2.639,-10.318 4.634,-12.892c4.019,-5.184 7.903,-7.667 10.662,-9.895c2.32,-1.873 3.937,-3.656 4.658,-6.123c1.567,-5.362 1.106,-9.864 0.688,-13.834c-0.336,-3.187 -0.759,-5.961 0.757,-8.551c4.821,-8.237 16.209,-15.677 16.209,-15.677c0.5,-0.328 0.852,-0.839 0.981,-1.423c-0,0 5.698,-25.932 14.636,-40.061c1.773,-2.803 3.656,-5.127 5.679,-6.583c1.625,-1.171 3.321,-1.746 5.11,-1.283c4.493,1.162 5.253,4.987 5.046,9.756c-0.259,5.962 -2.14,13.318 -2.968,20.355c-0.172,1.467 0.656,2.103 1.407,2.416c0.312,0.13 1.318,0.494 2.434,-0.384c0.121,-0.095 0.312,-0.276 0.551,-0.519c-0.086,0.899 -0.175,1.819 -0.284,2.757c-0.123,1.055 0.494,2.057 1.492,2.422c0.998,0.365 2.116,-0.002 2.703,-0.887c1.363,-2.054 2.556,-3.969 3.81,-5.546c0.217,-0.273 0.436,-0.537 0.657,-0.787c0.141,0.872 0.311,1.656 0.504,2.077c0.558,1.217 1.506,1.56 2.152,1.614c0.656,0.054 1.485,-0.076 2.201,-1.005c11.192,-14.517 26.158,-25.087 34.966,-28.436c0.761,-0.29 1.471,-0.522 2.125,-0.693c0.766,-0.201 1.684,-0.249 2.193,-0.259Z" style="fill:#fff;stroke:#fff;stroke-width:4.6px;stroke-linecap:butt;stroke-miterlimit:2;"/><path d="M131.497,154.035c3.833,0.13 32.279,1.744 56.085,12.898c1.149,0.538 2.52,0.042 3.058,-1.107c0.539,-1.15 0.043,-2.52 -1.107,-3.059c-24.887,-11.66 -54.683,-13.236 -58.035,-13.335c-18.043,-0.532 -15.935,3.953 -0.256,4.607c0.086,0.003 0.171,0.002 0.255,-0.004Z" style="stroke:#fff;stroke-width:4.6px;stroke-linecap:butt;stroke-miterlimit:2;"/><path d="M126.172,160.94c13.299,1.191 29.939,8.424 48.334,18.674c1.109,0.618 2.511,0.219 3.128,-0.89c0.618,-1.108 0.22,-2.51 -0.889,-3.128c-19.073,-10.628 -36.374,-18.002 -50.163,-19.237c-1.264,-0.113 -2.383,0.821 -2.496,2.085c-0.113,1.265 0.822,2.383 2.086,2.496Z" style="stroke:#fff;stroke-width:4.6px;stroke-linecap:butt;stroke-miterlimit:2;"/><path d="M122.049,166.755c17.469,3.331 32.147,8.765 42.313,17.714c0.953,0.838 2.408,0.746 3.246,-0.207c0.839,-0.953 0.746,-2.407 -0.206,-3.246c-10.703,-9.421 -26.101,-15.273 -44.492,-18.78c-1.246,-0.237 -2.452,0.582 -2.69,1.829c-0.237,1.247 0.582,2.452 1.829,2.69Z" style="stroke:#fff;stroke-width:4.6px;stroke-linecap:butt;stroke-miterlimit:2;"/><path d="M63.398,154.132c-16.063,4.504 -29.08,9.509 -37.511,15.188c-1.053,0.709 -1.332,2.139 -0.623,3.192c0.709,1.053 2.14,1.332 3.193,0.623c8.126,-5.474 20.7,-10.232 36.183,-14.574c1.223,-0.343 1.937,-1.613 1.594,-2.835c-0.343,-1.223 -1.613,-1.937 -2.836,-1.594Z" style="stroke:#fff;stroke-width:4.6px;stroke-linecap:butt;stroke-miterlimit:2;"/><path d="M59.573,140.591c-17.1,1.451 -32.972,4.381 -47.154,9.333c-1.199,0.418 -1.832,1.731 -1.414,2.929c0.419,1.199 1.731,1.832 2.93,1.413c13.842,-4.832 29.337,-7.676 46.027,-9.091c1.265,-0.107 2.205,-1.221 2.098,-2.486c-0.108,-1.265 -1.222,-2.205 -2.487,-2.098Z" style="stroke:#fff;stroke-width:4.6px;stroke-linecap:butt;stroke-miterlimit:2;"/><path d="M64.103,133.008c-16.272,-3.155 -33.345,-3.905 -51.37,-1.798c-1.261,0.147 -2.165,1.29 -2.018,2.551c0.148,1.261 1.291,2.165 2.552,2.017c17.53,-2.048 34.135,-1.322 49.96,1.745c1.247,0.242 2.455,-0.574 2.696,-1.82c0.242,-1.246 -0.574,-2.454 -1.82,-2.695Z" style="stroke:#fff;stroke-width:4.6px;stroke-linecap:butt;stroke-miterlimit:2;"/><path d="M63.951,120.794c-9.819,-4.713 -23.326,-9.437 -41.883,-14.15c-1.228,-0.312 -2.479,0.432 -2.791,1.66c-0.312,1.229 0.432,2.48 1.661,2.792c18.174,4.616 31.408,9.223 41.025,13.839c1.142,0.549 2.516,0.067 3.064,-1.076c0.549,-1.143 0.066,-2.516 -1.076,-3.065Z" style="stroke:#fff;stroke-width:4.6px;stroke-linecap:butt;stroke-miterlimit:2;"/><path d="M99.252,176.844c0.547,0.36 0.86,0.574 0.86,0.574c1.023,0.69 2.408,0.449 3.138,-0.546c0.731,-0.995 0.546,-2.388 -0.418,-3.158c-0,-0 -0.464,-0.383 -1.504,-0.985c-3.466,-2.205 -12.726,-7.861 -17.514,-8.545c-6.451,-0.922 -13.755,4.298 -13.755,4.298c-0.864,0.633 -1.176,1.778 -0.755,2.761c0.422,0.984 1.467,1.547 2.521,1.358c4.99,-0.896 10.053,-1.344 15.366,-0.118c6.93,1.599 10.631,3.5 12.061,4.361Z" style="fill:#fff;stroke:#fff;stroke-width:4.6px;stroke-linecap:butt;stroke-miterlimit:2;"/><path d="M66.518,95.229c-0.382,-0.499 -0.85,-0.758 -1.336,-0.879c-0.549,-0.136 -1.218,-0.124 -1.924,0.331c-0.314,0.202 -0.828,0.698 -1.29,1.532c-0.915,1.653 -2.23,5.35 -2.507,7.376c-0.262,1.918 -0.052,5.587 0.279,7.889c0.196,1.362 0.528,2.35 0.731,2.681c0.583,0.947 1.383,1.142 1.937,1.169c0.632,0.03 1.338,-0.135 1.941,-0.866c0.725,-0.879 1.354,-2.248 1.806,-3.909c0.871,-3.194 1.193,-7.593 1.172,-10.644c-0.011,-1.669 -0.142,-2.974 -0.3,-3.585c-0.137,-0.531 -0.348,-0.885 -0.509,-1.095Z" style="fill:#fff;stroke:#fff;stroke-width:4.6px;stroke-linecap:butt;stroke-miterlimit:2;"/></g><g id="レイヤー11" serif:id="レイヤー1"><path d="M64.692,96.628c-0.47,-0.614 -2.609,4.764 -2.952,7.272c-0.382,2.799 0.38,9.65 0.834,9.099c2.679,-3.248 2.768,-15.522 2.118,-16.371Z" style="fill:none;stroke:#000;stroke-width:4.6px;"/><path d="M82.364,71.448c0,-0 11.907,-53.882 28.243,-49.656c11.327,2.93 5.453,18.414 3.784,32.603c-0.061,0.523 5.536,-6.015 5.536,-6.015c-0.908,2.91 -0.982,6.45 -1.428,10.282c2.806,-4.229 4.931,-7.874 8.198,-9.335c-0,-0 0.39,6.634 1.221,5.556c19.169,-24.864 49.209,-38.345 42.543,-25.255c-7.825,15.369 -13.617,36.133 -12.773,53.66c0.944,19.61 1.845,25.838 2.051,26.106c9.29,12.104 12.009,36.047 8.428,45.661c-4.753,12.759 -6.735,14.416 -18.783,23.272c-9.363,6.883 -22.224,6.248 -31.348,6.678c-11.956,0.563 -20.093,-18.624 -36.028,-18.702c-8.099,-0.04 -6.799,3.187 -14.75,5.457c-10.608,3.028 -21.433,-17.533 -22.917,-21.509c-2.639,-7.072 0.885,-19.555 4.496,-24.212c6.943,-8.956 13.448,-10.186 14.93,-15.256c2.933,-10.035 -1.867,-16.861 1.668,-22.9c5.044,-8.618 16.929,-16.435 16.929,-16.435Z" style="fill:#ffdaac;stroke:#803f00;stroke-width:4.59px;"/><path d="M93.25,78.754c-0,-0 0.708,-2.657 5.314,-4.429" style="fill:none;stroke:#803f00;stroke-width:4.6px;"/><path d="M99.627,80.526c1.772,-3.189 2.126,-3.366 4.429,-4.784" style="fill:none;stroke:#803f00;stroke-width:4.6px;"/><path d="M104.41,79.463c3.012,-1.949 2.48,-3.012 4.606,-3.012" style="fill:none;stroke:#803f00;stroke-width:4.6px;"/><path d="M137.75,133.824c-0.484,-0.236 2.078,3.014 2.913,4.595c0.683,1.293 0.33,1.175 0.33,1.175" style="fill:none;stroke:#803f00;stroke-width:4.6px;"/><path d="M141.966,133.317c1.063,0.533 2.126,1.474 3.189,3.189" style="fill:none;stroke:#803f00;stroke-width:4.6px;"/><path d="M146.041,131.014c1.437,1.338 2.166,2.323 2.657,3.189" style="fill:none;stroke:#803f00;stroke-width:4.6px;"/><path d="M84.923,114.805c-1.422,0.817 -5.032,3.373 -7.086,6.288" style="fill:none;stroke:#803f00;stroke-width:4.6px;"/><path d="M92.187,113.476c-1.347,1.051 -2.614,2.023 -5.138,4.251" style="fill:none;stroke:#803f00;stroke-width:4.6px;"/><path d="M95.116,120.966c1.345,-1.689 2.523,-2.711 3.632,-3.454" style="fill:none;stroke:#803f00;stroke-width:4.6px;"/><path d="M106.642,118.851c-1.14,1.063 -2.29,2.076 -3.189,4.34" style="fill:none;stroke:#803f00;stroke-width:4.6px;"/><path d="M131.337,151.741c-3.185,-0.133 30.001,0.357 57.22,13.109" style="fill:none;stroke:#000;stroke-width:4.6px;"/><path d="M126.377,158.65c13.544,1.212 30.515,8.516 49.248,18.955" style="fill:none;stroke:#000;stroke-width:4.6px;"/><path d="M122.48,164.496c17.929,3.419 32.967,9.062 43.402,18.246" style="fill:none;stroke:#000;stroke-width:4.6px;"/><path d="M64.019,156.347c-15.773,4.423 -28.568,9.304 -36.847,14.88" style="fill:none;stroke:#000;stroke-width:4.6px;"/><path d="M59.768,142.883c-16.895,1.433 -32.579,4.32 -46.591,9.212" style="fill:none;stroke:#000;stroke-width:4.6px;"/><path d="M63.665,135.266c-16.048,-3.112 -32.887,-3.85 -50.665,-1.772" style="fill:none;stroke:#000;stroke-width:4.6px;"/><path d="M62.957,122.865c-9.718,-4.665 -23.088,-9.33 -41.454,-13.995" style="fill:none;stroke:#000;stroke-width:4.59px;"/><path d="M83.552,151.045c-2.339,4.828 -1.945,12.031 0.329,15.007" style="fill:none;stroke:#803f00;stroke-width:4.6px;"/><path d="M83.552,151.045c0.554,-0.465 4.75,-0.868 12.33,-4.1" style="fill:none;stroke:#803f00;stroke-width:4.6px;"/><path d="M73.1,143.781c3.722,4.324 7.192,6.63 10.452,7.264" style="fill:none;stroke:#803f00;stroke-width:4.6px;"/><path d="M127.882,107.808c0,0 9.656,-9.391 11.959,0.441c1.491,6.371 0.653,8.974 -0.931,10.62c-0.904,0.938 -2.227,2.45 -3.321,3.287c-3.012,2.303 -8.761,4.075 -10.275,0.355c-2.126,-5.226 2.568,-14.703 2.568,-14.703Z" style="stroke:#000;stroke-width:4.6px;"/><path d="M129.873,106.092c-0.503,0.282 -3.209,3.082 -1.772,3.596c0.909,0.326 3.749,-0.064 3.579,-1.419c-0.287,-2.287 -1.807,-2.177 -1.807,-2.177Z" style="fill:#fff;"/><path d="M124.684,112.384c-0.141,0.865 -0.36,0.778 -0.339,1.543c0.024,0.873 0.485,0.905 1,0.533c0.466,-0.336 0.598,-1.208 1.215,-1.676c0.549,-0.417 0.333,-1.334 -0.818,-1.413c-0.63,-0.043 -1.058,1.013 -1.058,1.013Z" style="fill:#fff;"/><path d="M170.547,25.764c0,-0 -1.596,2.984 -5.112,7.764c-5.703,7.753 -9.059,25.518 -9.373,29.439c-0.233,2.902 1.818,11.154 1.818,11.154c-0,0 -0.32,-7.488 0.318,-10.756c3.954,-20.267 12.984,-35.698 12.349,-37.601Z" style="stroke:#803f00;stroke-width:4.6px;"/><path d="M71.418,170.337c5.291,-0.949 10.658,-1.395 16.29,-0.095c9.971,2.3 13.688,5.269 13.688,5.269c0,-0 -12.232,-8.24 -17.907,-9.05c-5.676,-0.811 -12.071,3.876 -12.071,3.876Z" style="fill:#e2892c;stroke:#803f00;stroke-width:4.6px;"/></g></svg>